<svg width="333" height="108" viewBox="0 0 333 108" fill="none" xmlns="http://www.w3.org/2000/svg">
<g id="normal-left" clip-path="url(#clip0_884_18723)">
<path d="M32.0002 33.1717L36.9502 28.2217L38.3642 29.6357L32.0002 35.9997L25.6362 29.6357L27.0502 28.2217L32.0002 33.1717Z" fill="#222222"/>
</g>
<g id="small-left" clip-path="url(#clip1_884_18723)">
<path d="M144 36.172L149.364 30.808L150.778 32.222L143 40L135.222 32.222L136.636 30.808L142 36.172L142 24L144 24L144 36.172Z" fill="#222222"/>
</g>
<g id="large-top" clip-path="url(#clip2_884_18723)">
<path d="M80.0613 32.1106L75.1113 27.1606L76.5253 25.7466L82.8893 32.1106L76.5253 38.4746L75.1113 37.0606L80.0613 32.1106Z" fill="#222222"/>
</g>
<g id="large-down" clip-path="url(#clip3_884_18723)">
<path d="M194.172 30.9997L188.808 25.6357L190.222 24.2217L198 31.9997L190.222 39.7777L188.808 38.3637L194.172 32.9997H182V30.9997H194.172Z" fill="#222222"/>
</g>
<g id="large-left" clip-path="url(#clip4_884_18723)">
<path d="M32.0003 75.05L27.0503 80L25.6363 78.586L32.0003 72.222L38.3643 78.586L36.9503 80L32.0003 75.05Z" fill="#222222"/>
</g>
<g id="large-right" clip-path="url(#clip5_884_18723)">
<path d="M142 71.828L136.636 77.192L135.222 75.778L143 68L150.778 75.778L149.364 77.192L144 71.828L144 84L142 84L142 71.828Z" fill="#222222"/>
</g>
<g id="normal-top" clip-path="url(#clip6_884_18723)">
<path d="M301.172 31.9998L298.343 29.1718L299.757 27.7568L304 31.9998L299.757 36.2428L298.343 34.8278L301.172 31.9998Z" fill="#222222"/>
</g>
<g id="small-top" clip-path="url(#clip7_884_18723)">
<path d="M300.828 75.9998L303.657 78.8278L302.243 80.2428L298 75.9998L302.243 71.7568L303.657 73.1718L300.828 75.9998Z" fill="#222222"/>
</g>
<g id="normal-right" clip-path="url(#clip8_884_18723)">
<path d="M254 34.9998L249.757 30.7568L251.172 29.3428L254 32.1718L256.828 29.3428L258.243 30.7568L254 34.9998Z" fill="#222222"/>
</g>
<g id="small-right" clip-path="url(#clip9_884_18723)">
<path d="M254 75.828L251.172 78.657L249.757 77.243L254 73L258.243 77.243L256.828 78.657L254 75.828Z" fill="#222222"/>
</g>
<g id="normal-down" clip-path="url(#clip10_884_18723)">
<path d="M77.9392 76.1111L82.8892 81.0611L81.4752 82.4751L75.1112 76.1111L81.4752 69.7471L82.8892 71.1611L77.9392 76.1111Z" fill="#222222"/>
</g>
<g id="small-down" clip-path="url(#clip11_884_18723)">
<path d="M185.828 77.0003L191.192 82.3643L189.778 83.7783L182 76.0003L189.778 68.2223L191.192 69.6363L185.828 75.0003L198 75.0003L198 77.0003L185.828 77.0003Z" fill="#222222"/>
</g>
</svg>
