<svg width="64" height="108" viewBox="0 0 64 108" fill="none" xmlns="http://www.w3.org/2000/svg">
<g id="fill-t" clip-path="url(#clip0_884_18632)">
<path d="M25.5 32.0002H24V27.0002H22V25.0002H28V27.0002H26V29.7952L35.813 27.1662L35.233 25.0002H32V23.0002H35.978C36.2019 22.9953 36.4209 23.0656 36.6001 23.2C36.7792 23.3344 36.9081 23.5249 36.966 23.7412L38.519 29.5372L36.587 30.0542L36.331 29.0982L25.5 32.0002ZM25 39.0002C25.5304 39.0002 26.0391 38.7895 26.4142 38.4145C26.7893 38.0394 27 37.5307 27 37.0002C27 36.4698 26.7893 35.9611 26.4142 35.586C26.0391 35.211 25.5304 35.0002 25 35.0002C24.4696 35.0002 23.9609 35.211 23.5858 35.586C23.2107 35.9611 23 36.4698 23 37.0002C23 37.5307 23.2107 38.0394 23.5858 38.4145C23.9609 38.7895 24.4696 39.0002 25 39.0002ZM25 41.0002C23.9391 41.0002 22.9217 40.5788 22.1716 39.8287C21.4214 39.0785 21 38.0611 21 37.0002C21 35.9394 21.4214 34.922 22.1716 34.1718C22.9217 33.4217 23.9391 33.0002 25 33.0002C26.0609 33.0002 27.0783 33.4217 27.8284 34.1718C28.5786 34.922 29 35.9394 29 37.0002C29 38.0611 28.5786 39.0785 27.8284 39.8287C27.0783 40.5788 26.0609 41.0002 25 41.0002ZM38 39.0002C38.7956 39.0002 39.5587 38.6842 40.1213 38.1216C40.6839 37.559 41 36.7959 41 36.0002C41 35.2046 40.6839 34.4415 40.1213 33.8789C39.5587 33.3163 38.7956 33.0002 38 33.0002C37.2044 33.0002 36.4413 33.3163 35.8787 33.8789C35.3161 34.4415 35 35.2046 35 36.0002C35 36.7959 35.3161 37.559 35.8787 38.1216C36.4413 38.6842 37.2044 39.0002 38 39.0002ZM38 41.0002C36.6739 41.0002 35.4021 40.4735 34.4645 39.5358C33.5268 38.5981 33 37.3263 33 36.0002C33 34.6742 33.5268 33.4024 34.4645 32.4647C35.4021 31.527 36.6739 31.0002 38 31.0002C39.3261 31.0002 40.5979 31.527 41.5355 32.4647C42.4732 33.4024 43 34.6742 43 36.0002C43 37.3263 42.4732 38.5981 41.5355 39.5358C40.5979 40.4735 39.3261 41.0002 38 41.0002Z" fill="#222222"/>
</g>
<g id="fill-f" clip-path="url(#clip1_884_18632)">
<path d="M25.5 76.0002H24V71.0002H22V69.0002H28V71.0002H26V73.7952L35.813 71.1662L35.233 69.0002H32V67.0002H35.978C36.2019 66.9953 36.4209 67.0656 36.6001 67.2C36.7792 67.3344 36.9081 67.5249 36.966 67.7412L38.519 73.5372L36.587 74.0542L36.331 73.0982L25.5 76.0002ZM25 85.0002C23.9391 85.0002 22.9217 84.5788 22.1716 83.8287C21.4214 83.0785 21 82.0611 21 81.0002C21 79.9394 21.4214 78.922 22.1716 78.1718C22.9217 77.4217 23.9391 77.0002 25 77.0002C26.0609 77.0002 27.0783 77.4217 27.8284 78.1718C28.5786 78.922 29 79.9394 29 81.0002C29 82.0611 28.5786 83.0785 27.8284 83.8287C27.0783 84.5788 26.0609 85.0002 25 85.0002ZM25 82.0002C25.2652 82.0002 25.5196 81.8949 25.7071 81.7074C25.8946 81.5198 26 81.2655 26 81.0002C26 80.735 25.8946 80.4807 25.7071 80.2931C25.5196 80.1056 25.2652 80.0002 25 80.0002C24.7348 80.0002 24.4804 80.1056 24.2929 80.2931C24.1054 80.4807 24 80.735 24 81.0002C24 81.2655 24.1054 81.5198 24.2929 81.7074C24.4804 81.8949 24.7348 82.0002 25 82.0002ZM38 85.0002C36.6739 85.0002 35.4021 84.4735 34.4645 83.5358C33.5268 82.5981 33 81.3263 33 80.0002C33 78.6742 33.5268 77.4024 34.4645 76.4647C35.4021 75.527 36.6739 75.0002 38 75.0002C39.3261 75.0002 40.5979 75.527 41.5355 76.4647C42.4732 77.4024 43 78.6742 43 80.0002C43 81.3263 42.4732 82.5981 41.5355 83.5358C40.5979 84.4735 39.3261 85.0002 38 85.0002ZM38 81.0002C38.2652 81.0002 38.5196 80.8949 38.7071 80.7074C38.8946 80.5198 39 80.2655 39 80.0002C39 79.735 38.8946 79.4807 38.7071 79.2931C38.5196 79.1056 38.2652 79.0002 38 79.0002C37.7348 79.0002 37.4804 79.1056 37.2929 79.2931C37.1054 79.4807 37 79.735 37 80.0002C37 80.2655 37.1054 80.5198 37.2929 80.7074C37.4804 80.8949 37.7348 81.0002 38 81.0002Z" fill="#222222"/>
</g>
</svg>
