<svg width="64" height="108" viewBox="0 0 64 108" fill="none" xmlns="http://www.w3.org/2000/svg">
<g id="fill-t" clip-path="url(#clip0_884_18660)">
<path d="M23 38.5V25C23 24.2044 23.3161 23.4413 23.8787 22.8787C24.4413 22.3161 25.2044 22 26 22H40C40.2652 22 40.5196 22.1054 40.7071 22.2929C40.8946 22.4804 41 22.7348 41 23V41C41 41.2652 40.8946 41.5196 40.7071 41.7071C40.5196 41.8946 40.2652 42 40 42H26.5C25.5717 42 24.6815 41.6313 24.0251 40.9749C23.3687 40.3185 23 39.4283 23 38.5ZM39 40V37H26.5C26.1022 37 25.7206 37.158 25.4393 37.4393C25.158 37.7206 25 38.1022 25 38.5C25 38.8978 25.158 39.2794 25.4393 39.5607C25.7206 39.842 26.1022 40 26.5 40H39ZM25 35.337C25.4687 35.1144 25.9812 34.9993 26.5 35H39V24H26C25.7348 24 25.4804 24.1054 25.2929 24.2929C25.1054 24.4804 25 24.7348 25 25V35.337Z" fill="#222222"/>
</g>
<g id="fill-f" clip-path="url(#clip1_884_18660)">
<path d="M40 86H26.5C25.5717 86 24.6815 85.6313 24.0251 84.9749C23.3687 84.3185 23 83.4283 23 82.5V69C23 68.2044 23.3161 67.4413 23.8787 66.8787C24.4413 66.3161 25.2044 66 26 66H40C40.2652 66 40.5196 66.1054 40.7071 66.2929C40.8946 66.4804 41 66.7348 41 67V85C41 85.2652 40.8946 85.5196 40.7071 85.7071C40.5196 85.8946 40.2652 86 40 86ZM39 84V81H26.5C26.1022 81 25.7206 81.158 25.4393 81.4393C25.158 81.7206 25 82.1022 25 82.5C25 82.8978 25.158 83.2794 25.4393 83.5607C25.7206 83.842 26.1022 84 26.5 84H39Z" fill="#222222"/>
</g>
</svg>
