<svg width="64" height="108" viewBox="0 0 64 108" fill="none" xmlns="http://www.w3.org/2000/svg">
<g id="fill-t" clip-path="url(#clip0_884_18788)">
<path d="M29.9732 38H34.0272C34.1592 36.798 34.7722 35.806 35.7672 34.723C35.8802 34.601 36.5992 33.856 36.6842 33.75C37.3905 32.8676 37.8332 31.8037 37.9613 30.6807C38.0895 29.5578 37.8978 28.4215 37.4085 27.4027C36.9191 26.3839 36.1519 25.5241 35.1953 24.9222C34.2387 24.3202 33.1315 24.0008 32.0013 24.0005C30.8711 24.0003 29.7637 24.3193 28.8069 24.9208C27.85 25.5223 27.0825 26.3818 26.5927 27.4004C26.1029 28.419 25.9107 29.5552 26.0384 30.6782C26.166 31.8012 26.6083 32.8653 27.3142 33.748C27.4002 33.855 28.1212 34.601 28.2322 34.722C29.2282 35.806 29.8412 36.798 29.9732 38ZM34.0002 40H30.0002V41H34.0002V40ZM25.7542 35C24.8124 33.8233 24.2222 32.4044 24.0515 30.9069C23.8808 29.4094 24.1366 27.8942 24.7895 26.5357C25.4423 25.1773 26.4656 24.0308 27.7416 23.2286C29.0175 22.4263 30.4941 22.0007 32.0013 22.001C33.5085 22.0012 34.985 22.4272 36.2606 23.2299C37.5363 24.0326 38.5592 25.1794 39.2117 26.538C39.8641 27.8967 40.1194 29.412 39.9482 30.9095C39.7771 32.4069 39.1864 33.8256 38.2442 35.002C37.6242 35.774 36.0002 37 36.0002 38.5V41C36.0002 41.5304 35.7895 42.0391 35.4144 42.4142C35.0393 42.7893 34.5306 43 34.0002 43H30.0002C29.4698 43 28.9611 42.7893 28.586 42.4142C28.2109 42.0391 28.0002 41.5304 28.0002 41V38.5C28.0002 37 26.3752 35.774 25.7542 35ZM33.0002 30.004H35.5002L31.0002 36.004V32.004H28.5002L33.0002 26V30.005V30.004Z" fill="#222222"/>
</g>
<g id="fill-f" clip-path="url(#clip1_884_18788)">
<path d="M27.9412 82C27.6442 80.727 26.3042 79.686 25.7542 79C24.8124 77.8233 24.2222 76.4044 24.0515 74.9069C23.8808 73.4094 24.1366 71.8942 24.7895 70.5357C25.4423 69.1773 26.4656 68.0308 27.7416 67.2286C29.0175 66.4263 30.4941 66.0007 32.0013 66.001C33.5085 66.0012 34.985 66.4272 36.2606 67.2299C37.5363 68.0326 38.5592 69.1794 39.2117 70.538C39.8641 71.8967 40.1194 73.412 39.9482 74.9095C39.7771 76.4069 39.1864 77.8256 38.2442 79.002C37.6942 79.687 36.3562 80.728 36.0592 82H27.9402H27.9412ZM36.0002 84V85C36.0002 85.5304 35.7895 86.0391 35.4144 86.4142C35.0393 86.7893 34.5306 87 34.0002 87H30.0002C29.4698 87 28.9611 86.7893 28.586 86.4142C28.2109 86.0391 28.0002 85.5304 28.0002 85V84H36.0002ZM33.0002 74.005V70L28.5002 76.005H31.0002V80.005L35.5002 74.005H33.0002Z" fill="#222222"/>
</g>
</svg>
