<svg width="64" height="108" viewBox="0 0 64 108" fill="none" xmlns="http://www.w3.org/2000/svg">
<g id="fill-t" clip-path="url(#clip0_884_18625)">/g>
<path d="M37 23H41C41.2652 23 41.5196 23.1054 41.7071 23.2929C41.8946 23.4804 42 23.7348 42 24V40C42 40.2652 41.8946 40.5196 41.7071 40.7071C41.5196 40.8946 41.2652 41 41 41H23C22.7348 41 22.4804 40.8946 22.2929 40.7071C22.1054 40.5196 22 40.2652 22 40V24C22 23.7348 22.1054 23.4804 22.2929 23.2929C22.4804 23.1054 22.7348 23 23 23H27V21H29V23H35V21H37V23ZM35 25H29V27H27V25H24V29H40V25H37V27H35V25ZM40 31H24V39H40V31Z" fill="#222222"/>
</g>
<g id="fill-f" clip-path="url(#clip1_884_18625)">
<path d="M22 75H42V84C42 84.2652 41.8946 84.5196 41.7071 84.7071C41.5196 84.8946 41.2652 85 41 85H23C22.7348 85 22.4804 84.8946 22.2929 84.7071C22.1054 84.5196 22 84.2652 22 84V75ZM37 67H41C41.2652 67 41.5196 67.1054 41.7071 67.2929C41.8946 67.4804 42 67.7348 42 68V73H22V68C22 67.7348 22.1054 67.4804 22.2929 67.2929C22.4804 67.1054 22.7348 67 23 67H27V65H29V67H35V65H37V67Z" fill="#222222"/>
</g>
</svg>
