<svg width="64" height="108" viewBox="0 0 64 108" fill="none" xmlns="http://www.w3.org/2000/svg">
<g id="fill-t" clip-path="url(#clip0_884_18639)">
<path d="M39 40H25V41C25 41.2652 24.8946 41.5196 24.7071 41.7071C24.5196 41.8946 24.2652 42 24 42H23C22.7348 42 22.4804 41.8946 22.2929 41.7071C22.1054 41.5196 22 41.2652 22 41V31L24.48 25.212C24.6343 24.852 24.891 24.5452 25.2181 24.3298C25.5452 24.1143 25.9283 23.9997 26.32 24H37.68C38.0713 24 38.4541 24.1149 38.7808 24.3303C39.1075 24.5458 39.3638 24.8523 39.518 25.212L42 31V41C42 41.2652 41.8946 41.5196 41.7071 41.7071C41.5196 41.8946 41.2652 42 41 42H40C39.7348 42 39.4804 41.8946 39.2929 41.7071C39.1054 41.5196 39 41.2652 39 41V40ZM40 33H24V38H40V33ZM24.176 31H39.824L37.681 26H26.32L24.177 31H24.176ZM26.5 37C26.1022 37 25.7206 36.842 25.4393 36.5607C25.158 36.2794 25 35.8978 25 35.5C25 35.1022 25.158 34.7206 25.4393 34.4393C25.7206 34.158 26.1022 34 26.5 34C26.8978 34 27.2794 34.158 27.5607 34.4393C27.842 34.7206 28 35.1022 28 35.5C28 35.8978 27.842 36.2794 27.5607 36.5607C27.2794 36.842 26.8978 37 26.5 37ZM37.5 37C37.1022 37 36.7206 36.842 36.4393 36.5607C36.158 36.2794 36 35.8978 36 35.5C36 35.1022 36.158 34.7206 36.4393 34.4393C36.7206 34.158 37.1022 34 37.5 34C37.8978 34 38.2794 34.158 38.5607 34.4393C38.842 34.7206 39 35.1022 39 35.5C39 35.8978 38.842 36.2794 38.5607 36.5607C38.2794 36.842 37.8978 37 37.5 37Z" fill="#222222"/>
</g>
<g id="fill-f" clip-path="url(#clip1_884_18639)">
<path d="M39 84H25V85C25 85.2652 24.8946 85.5196 24.7071 85.7071C24.5196 85.8946 24.2652 86 24 86H23C22.7348 86 22.4804 85.8946 22.2929 85.7071C22.1054 85.5196 22 85.2652 22 85V76L24.513 69.298C24.6559 68.9167 24.9119 68.5881 25.2466 68.3562C25.5813 68.1242 25.9788 67.9999 26.386 68H37.614C38.0212 67.9999 38.4187 68.1242 38.7534 68.3562C39.0881 68.5881 39.3441 68.9167 39.487 69.298L42 76V85C42 85.2652 41.8946 85.5196 41.7071 85.7071C41.5196 85.8946 41.2652 86 41 86H40C39.7348 86 39.4804 85.8946 39.2929 85.7071C39.1054 85.5196 39 85.2652 39 85V84ZM24.136 76H39.864L37.614 70H26.386L24.136 76ZM26.5 81C26.8978 81 27.2794 80.842 27.5607 80.5607C27.842 80.2794 28 79.8978 28 79.5C28 79.1022 27.842 78.7206 27.5607 78.4393C27.2794 78.158 26.8978 78 26.5 78C26.1022 78 25.7206 78.158 25.4393 78.4393C25.158 78.7206 25 79.1022 25 79.5C25 79.8978 25.158 80.2794 25.4393 80.5607C25.7206 80.842 26.1022 81 26.5 81ZM37.5 81C37.8978 81 38.2794 80.842 38.5607 80.5607C38.842 80.2794 39 79.8978 39 79.5C39 79.1022 38.842 78.7206 38.5607 78.4393C38.2794 78.158 37.8978 78 37.5 78C37.1022 78 36.7206 78.158 36.4393 78.4393C36.158 78.7206 36 79.1022 36 79.5C36 79.8978 36.158 80.2794 36.4393 80.5607C36.7206 80.842 37.1022 81 37.5 81Z" fill="#222222"/>
</g>
</svg>
