<svg width="64" height="108" viewBox="0 0 64 108" fill="none" xmlns="http://www.w3.org/2000/svg">
<g id="fill-t" clip-path="url(#clip0_884_18674)">
<path d="M24 36V24H22V22H25C25.2652 22 25.5196 22.1054 25.7071 22.2929C25.8946 22.4804 26 22.7348 26 23V35H38.438L40.438 27H28V25H41.72C41.872 25 42.022 25.0347 42.1586 25.1013C42.2952 25.168 42.4148 25.265 42.5083 25.3848C42.6019 25.5046 42.6668 25.6442 42.6983 25.7929C42.7298 25.9416 42.7269 26.0956 42.69 26.243L40.19 36.243C40.1358 36.4592 40.011 36.6512 39.8352 36.7883C39.6595 36.9255 39.4429 37 39.22 37H25C24.7348 37 24.4804 36.8946 24.2929 36.7071C24.1054 36.5196 24 36.2652 24 36ZM26 43C25.4696 43 24.9609 42.7893 24.5858 42.4142C24.2107 42.0391 24 41.5304 24 41C24 40.4696 24.2107 39.9609 24.5858 39.5858C24.9609 39.2107 25.4696 39 26 39C26.5304 39 27.0391 39.2107 27.4142 39.5858C27.7893 39.9609 28 40.4696 28 41C28 41.5304 27.7893 42.0391 27.4142 42.4142C27.0391 42.7893 26.5304 43 26 43ZM38 43C37.4696 43 36.9609 42.7893 36.5858 42.4142C36.2107 42.0391 36 41.5304 36 41C36 40.4696 36.2107 39.9609 36.5858 39.5858C36.9609 39.2107 37.4696 39 38 39C38.5304 39 39.0391 39.2107 39.4142 39.5858C39.7893 39.9609 40 40.4696 40 41C40 41.5304 39.7893 42.0391 39.4142 42.4142C39.0391 42.7893 38.5304 43 38 43Z" fill="#222222"/>
</g>
<g id="fill-f" clip-path="url(#clip1_884_18674)">
<path d="M26 73H39.938L40.438 71H28V69H41.72C41.872 69 42.022 69.0347 42.1586 69.1013C42.2952 69.168 42.4148 69.265 42.5083 69.3848C42.6019 69.5046 42.6668 69.6442 42.6983 69.7929C42.7298 69.9416 42.7269 70.0956 42.69 70.243L40.19 80.243C40.1358 80.4592 40.011 80.6512 39.8352 80.7883C39.6595 80.9255 39.4429 81 39.22 81H25C24.7348 81 24.4804 80.8946 24.2929 80.7071C24.1054 80.5196 24 80.2652 24 80V68H22V66H25C25.2652 66 25.5196 66.1054 25.7071 66.2929C25.8946 66.4804 26 66.7348 26 67V73ZM26 87C25.4696 87 24.9609 86.7893 24.5858 86.4142C24.2107 86.0391 24 85.5304 24 85C24 84.4696 24.2107 83.9609 24.5858 83.5858C24.9609 83.2107 25.4696 83 26 83C26.5304 83 27.0391 83.2107 27.4142 83.5858C27.7893 83.9609 28 84.4696 28 85C28 85.5304 27.7893 86.0391 27.4142 86.4142C27.0391 86.7893 26.5304 87 26 87ZM38 87C37.4696 87 36.9609 86.7893 36.5858 86.4142C36.2107 86.0391 36 85.5304 36 85C36 84.4696 36.2107 83.9609 36.5858 83.5858C36.9609 83.2107 37.4696 83 38 83C38.5304 83 39.0391 83.2107 39.4142 83.5858C39.7893 83.9609 40 84.4696 40 85C40 85.5304 39.7893 86.0391 39.4142 86.4142C39.0391 86.7893 38.5304 87 38 87Z" fill="#222222"/>
</g>
</svg>
