<svg width="64" height="108" viewBox="0 0 64 108" fill="none" xmlns="http://www.w3.org/2000/svg">
<g id="fill-t" clip-path="url(#clip0_884_18653)">
<path d="M30 23H34C36.1217 23 38.1566 23.8429 39.6569 25.3431C41.1571 26.8434 42 28.8783 42 31C42 33.1217 41.1571 35.1566 39.6569 36.6569C38.1566 38.1571 36.1217 39 34 39V42.5C29 40.5 22 37.5 22 31C22 28.8783 22.8429 26.8434 24.3431 25.3431C25.8434 23.8429 27.8783 23 30 23ZM32 37H34C34.7879 37 35.5681 36.8448 36.2961 36.5433C37.0241 36.2417 37.6855 35.7998 38.2426 35.2426C38.7998 34.6855 39.2417 34.0241 39.5433 33.2961C39.8448 32.5681 40 31.7879 40 31C40 30.2121 39.8448 29.4319 39.5433 28.7039C39.2417 27.9759 38.7998 27.3145 38.2426 26.7574C37.6855 26.2002 37.0241 25.7583 36.2961 25.4567C35.5681 25.1552 34.7879 25 34 25H30C28.4087 25 26.8826 25.6321 25.7574 26.7574C24.6321 27.8826 24 29.4087 24 31C24 34.61 26.462 36.966 32 39.48V37Z" fill="#222222"/>
</g>
<g id="fill-f" clip-path="url(#clip1_884_18653)">
<path d="M30 67H34C36.1217 67 38.1566 67.8429 39.6569 69.3431C41.1571 70.8434 42 72.8783 42 75C42 77.1217 41.1571 79.1566 39.6569 80.6569C38.1566 82.1571 36.1217 83 34 83V86.5C29 84.5 22 81.5 22 75C22 72.8783 22.8429 70.8434 24.3431 69.3431C25.8434 67.8429 27.8783 67 30 67Z" fill="#222222"/>
</g>
</svg>
