<svg width="100" height="108" viewBox="0 0 100 108" fill="none" xmlns="http://www.w3.org/2000/svg">
<g id="circle-ft" clip-path="url(#clip0_884_18379)">
<path d="M24 23H40C40.2652 23 40.5196 23.1054 40.7071 23.2929C40.8946 23.4804 41 23.7348 41 24V40C41 40.2652 40.8946 40.5196 40.7071 40.7071C40.5196 40.8946 40.2652 41 40 41H24C23.7348 41 23.4804 40.8946 23.2929 40.7071C23.1054 40.5196 23 40.2652 23 40V24C23 23.7348 23.1054 23.4804 23.2929 23.2929C23.4804 23.1054 23.7348 23 24 23V23ZM25 25V39H39V25H25Z" fill="#222222"/>
</g>
<g id="circle-ff" clip-path="url(#clip1_884_18379)">
<path d="M60 23H76C76.2652 23 76.5196 23.1054 76.7071 23.2929C76.8946 23.4804 77 23.7348 77 24V40C77 40.2652 76.8946 40.5196 76.7071 40.7071C76.5196 40.8946 76.2652 41 76 41H60C59.7348 41 59.4804 40.8946 59.2929 40.7071C59.1054 40.5196 59 40.2652 59 40V24C59 23.7348 59.1054 23.4804 59.2929 23.2929C59.4804 23.1054 59.7348 23 60 23V23ZM60 23H76C76.2652 23 76.5196 23.1054 76.7071 23.2929C76.8946 23.4804 77 23.7348 77 24V40C77 40.2652 76.8946 40.5196 76.7071 40.7071C76.5196 40.8946 76.2652 41 76 41" fill="#222222"/>
<path d="M74.0728 28.9286L67.0028 35.9996L62.7598 31.7566L64.1738 30.3426L67.0028 33.1716L72.6588 27.5146L74.0728 28.9286Z" fill="white"/>
</g>
<g id="square-ft" clip-path="url(#clip2_884_18379)">
<path d="M32 82C26.477 82 22 77.523 22 72C22 66.477 26.477 62 32 62C37.523 62 42 66.477 42 72C42 77.523 37.523 82 32 82ZM32 80C34.1217 80 36.1566 79.1571 37.6569 77.6569C39.1571 76.1566 40 74.1217 40 72C40 69.8783 39.1571 67.8434 37.6569 66.3431C36.1566 64.8429 34.1217 64 32 64C29.8783 64 27.8434 64.8429 26.3431 66.3431C24.8429 67.8434 24 69.8783 24 72C24 74.1217 24.8429 76.1566 26.3431 77.6569C27.8434 79.1571 29.8783 80 32 80V80Z" fill="#222222"/>
</g>
<g id="square-ff" clip-path="url(#clip3_884_18379)">
<path d="M68 82C62.477 82 58 77.523 58 72C58 66.477 62.477 62 68 62C73.523 62 78 66.477 78 72C78 77.523 73.523 82 68 82ZM67.003 76L74.073 68.929L72.659 67.515L67.003 73.172L64.174 70.343L62.76 71.757L67.003 76Z" fill="#222222"/>
<path d="M74.0728 68.9286L67.0028 75.9996L62.7598 71.7566L64.1738 70.3426L67.0028 73.1716L72.6588 67.5146L74.0728 68.9286Z" fill="white"/>
</g>
</svg>
