<svg width="64" height="108" viewBox="0 0 64 108" fill="none" xmlns="http://www.w3.org/2000/svg">
<g id="fill-t" clip-path="url(#clip0_884_18618)">
<path d="M36 33V25H26V33C26 33.5304 26.2107 34.0391 26.5858 34.4142C26.9609 34.7893 27.4696 35 28 35H34C34.5304 35 35.0391 34.7893 35.4142 34.4142C35.7893 34.0391 36 33.5304 36 33ZM25 23H40C40.5304 23 41.0391 23.2107 41.4142 23.5858C41.7893 23.9609 42 24.4696 42 25V28C42 28.5304 41.7893 29.0391 41.4142 29.4142C41.0391 29.7893 40.5304 30 40 30H38V33C38 34.0609 37.5786 35.0783 36.8284 35.8284C36.0783 36.5786 35.0609 37 34 37H28C26.9391 37 25.9217 36.5786 25.1716 35.8284C24.4214 35.0783 24 34.0609 24 33V24C24 23.7348 24.1054 23.4804 24.2929 23.2929C24.4804 23.1054 24.7348 23 25 23ZM38 25V28H40V25H38ZM22 39H40V41H22V39Z" fill="#222222"/>
</g>
<g id="fill-f" clip-path="url(#clip1_884_18618)">
<path d="M25 67H40C40.5304 67 41.0391 67.2107 41.4142 67.5858C41.7893 67.9609 42 68.4696 42 69V72C42 72.5304 41.7893 73.0391 41.4142 73.4142C41.0391 73.7893 40.5304 74 40 74H38V77C38 78.0609 37.5786 79.0783 36.8284 79.8284C36.0783 80.5786 35.0609 81 34 81H28C26.9391 81 25.9217 80.5786 25.1716 79.8284C24.4214 79.0783 24 78.0609 24 77V68C24 67.7348 24.1054 67.4804 24.2929 67.2929C24.4804 67.1054 24.7348 67 25 67ZM38 69V72H40V69H38ZM22 83H40V85H22V83Z" fill="#222222"/>
</g>
</svg>
