<svg width="64" height="108" viewBox="0 0 64 108" fill="none" xmlns="http://www.w3.org/2000/svg">
<g id="fill-t" clip-path="url(#clip0_884_18484)">
<path d="M37 26H42V28H40V41C40 41.2652 39.8946 41.5196 39.7071 41.7071C39.5196 41.8946 39.2652 42 39 42H25C24.7348 42 24.4804 41.8946 24.2929 41.7071C24.1054 41.5196 24 41.2652 24 41V28H22V26H27V23C27 22.7348 27.1054 22.4804 27.2929 22.2929C27.4804 22.1054 27.7348 22 28 22H36C36.2652 22 36.5196 22.1054 36.7071 22.2929C36.8946 22.4804 37 22.7348 37 23V26ZM38 28H26V40H38V28ZM33.414 34L35.182 35.768L33.768 37.182L32 35.414L30.232 37.182L28.818 35.768L30.586 34L28.818 32.232L30.232 30.818L32 32.586L33.768 30.818L35.182 32.232L33.414 34ZM29 24V26H35V24H29Z" fill="#222222"/>
</g>
<g id="fill-f" clip-path="url(#clip1_884_18484)">
<path d="M27 70V67C27 66.7348 27.1054 66.4804 27.2929 66.2929C27.4804 66.1054 27.7348 66 28 66H36C36.2652 66 36.5196 66.1054 36.7071 66.2929C36.8946 66.4804 37 66.7348 37 67V70H42V72H40V85C40 85.2652 39.8946 85.5196 39.7071 85.7071C39.5196 85.8946 39.2652 86 39 86H25C24.7348 86 24.4804 85.8946 24.2929 85.7071C24.1054 85.5196 24 85.2652 24 85V72H22V70H27ZM33.414 78L35.182 76.232L33.768 74.818L32 76.586L30.232 74.818L28.818 76.232L30.586 78L28.818 79.768L30.232 81.182L32 79.414L33.768 81.182L35.182 79.768L33.414 78ZM29 68V70H35V68H29Z" fill="#222222"/>
</g>
</svg>
