<svg width="40" height="40" viewBox="0 0 40 40" fill="none" xmlns="http://www.w3.org/2000/svg">
<path d="M36.4844 6.52637H3.51562C1.57711 6.52637 0 8.10348 0 10.042V29.9571C0 31.8956 1.57711 33.4727 3.51562 33.4727H36.4844C38.4229 33.4727 40 31.8956 40 29.9571V10.042C40 8.10348 38.4229 6.52637 36.4844 6.52637ZM13.4672 28.9458C8.53422 28.9458 4.52094 24.9325 4.52094 19.9996C4.52094 15.0666 8.53422 11.0533 13.4672 11.0533C18.4002 11.0533 22.4134 15.0666 22.4134 19.9996C22.4134 24.9325 18.4002 28.9458 13.4672 28.9458ZM26.9423 16.6661V26.6204C26.9423 27.2675 26.4176 27.7922 25.7704 27.7922C25.1232 27.7922 24.5985 27.2675 24.5985 26.6204V16.6661C24.1775 16.4883 23.882 16.0717 23.882 15.586C23.882 15.1003 24.1775 14.6836 24.5985 14.5059V13.6377C24.5985 12.9905 25.1232 12.4658 25.7704 12.4658C26.4176 12.4658 26.9423 12.9905 26.9423 13.6377V14.5059C27.3634 14.6836 27.6589 15.1003 27.6589 15.586C27.6589 16.0717 27.3634 16.4883 26.9423 16.6661ZM31.197 25.1809V26.6203C31.197 27.2675 30.6723 27.7922 30.0252 27.7922C29.378 27.7922 28.8533 27.2675 28.8533 26.6203V25.1809C28.4323 25.0032 28.1366 24.5866 28.1366 24.1008C28.1366 23.6151 28.4322 23.1984 28.8533 23.0207V13.6377C28.8533 12.9905 29.378 12.4658 30.0252 12.4658C30.6723 12.4658 31.197 12.9905 31.197 13.6377V23.0208C31.6181 23.1986 31.9137 23.6152 31.9137 24.1009C31.9137 24.5866 31.6181 25.0032 31.197 25.1809ZM35.4518 16.6661V26.6204C35.4518 27.2675 34.9271 27.7922 34.2799 27.7922C33.6327 27.7922 33.108 27.2675 33.108 26.6204V16.6661C32.687 16.4884 32.3914 16.0717 32.3914 15.586C32.3914 15.1003 32.687 14.6836 33.108 14.5059V13.6377C33.108 12.9905 33.6327 12.4658 34.2799 12.4658C34.9271 12.4658 35.4518 12.9905 35.4518 13.6377V14.5059C35.8729 14.6836 36.1684 15.1003 36.1684 15.586C36.1684 16.0717 35.8729 16.4883 35.4518 16.6661Z" fill="#222222"/>
<path d="M13.4677 16.6182C11.6027 16.6182 10.0854 18.1354 10.0854 20.0004C10.0854 21.8654 11.6027 23.3827 13.4677 23.3827C15.3327 23.3827 16.85 21.8654 16.85 20.0004C16.85 18.1354 15.3327 16.6182 13.4677 16.6182ZM13.4677 21.0389C12.8951 21.0389 12.4292 20.5731 12.4292 20.0004C12.4292 19.4278 12.8951 18.9619 13.4677 18.9619C14.0404 18.9619 14.5062 19.4278 14.5062 20.0004C14.5062 20.5731 14.0404 21.0389 13.4677 21.0389Z" fill="#222222"/>
</svg>
