<svg width="64" height="108" viewBox="0 0 64 108" fill="none" xmlns="http://www.w3.org/2000/svg">
<g id="fill-t" clip-path="url(#clip0_884_18547)">
<path d="M32 42C26.477 42 22 37.523 22 32C22 26.477 26.477 22 32 22C37.523 22 42 26.477 42 32C42 37.523 37.523 42 32 42ZM32 40C34.1217 40 36.1566 39.1571 37.6569 37.6569C39.1571 36.1566 40 34.1217 40 32C40 29.8783 39.1571 27.8434 37.6569 26.3431C36.1566 24.8429 34.1217 24 32 24C29.8783 24 27.8434 24.8429 26.3431 26.3431C24.8429 27.8434 24 29.8783 24 32C24 34.1217 24.8429 36.1566 26.3431 37.6569C27.8434 39.1571 29.8783 40 32 40ZM28.5 34H34C34.1326 34 34.2598 33.9473 34.3536 33.8536C34.4473 33.7598 34.5 33.6326 34.5 33.5C34.5 33.3674 34.4473 33.2402 34.3536 33.1464C34.2598 33.0527 34.1326 33 34 33H30C29.337 33 28.7011 32.7366 28.2322 32.2678C27.7634 31.7989 27.5 31.163 27.5 30.5C27.5 29.837 27.7634 29.2011 28.2322 28.7322C28.7011 28.2634 29.337 28 30 28H31V26H33V28H35.5V30H30C29.8674 30 29.7402 30.0527 29.6464 30.1464C29.5527 30.2402 29.5 30.3674 29.5 30.5C29.5 30.6326 29.5527 30.7598 29.6464 30.8536C29.7402 30.9473 29.8674 31 30 31H34C34.663 31 35.2989 31.2634 35.7678 31.7322C36.2366 32.2011 36.5 32.837 36.5 33.5C36.5 34.163 36.2366 34.7989 35.7678 35.2678C35.2989 35.7366 34.663 36 34 36H33V38H31V36H28.5V34Z" fill="#222222"/>
</g>
<g id="fill-f" clip-path="url(#clip1_884_18547)">
<path d="M32 86C26.477 86 22 81.523 22 76C22 70.477 26.477 66 32 66C37.523 66 42 70.477 42 76C42 81.523 37.523 86 32 86ZM28.5 78V80H31V82H33V80H34C34.663 80 35.2989 79.7366 35.7678 79.2678C36.2366 78.7989 36.5 78.163 36.5 77.5C36.5 76.837 36.2366 76.2011 35.7678 75.7322C35.2989 75.2634 34.663 75 34 75H30C29.8674 75 29.7402 74.9473 29.6464 74.8536C29.5527 74.7598 29.5 74.6326 29.5 74.5C29.5 74.3674 29.5527 74.2402 29.6464 74.1464C29.7402 74.0527 29.8674 74 30 74H35.5V72H33V70H31V72H30C29.337 72 28.7011 72.2634 28.2322 72.7322C27.7634 73.2011 27.5 73.837 27.5 74.5C27.5 75.163 27.7634 75.7989 28.2322 76.2678C28.7011 76.7366 29.337 77 30 77H34C34.1326 77 34.2598 77.0527 34.3536 77.1464C34.4473 77.2402 34.5 77.3674 34.5 77.5C34.5 77.6326 34.4473 77.7598 34.3536 77.8536C34.2598 77.9473 34.1326 78 34 78H28.5Z" fill="#222222"/>
</g>
</svg>
