<svg width="64" height="108" viewBox="0 0 64 108" fill="none" xmlns="http://www.w3.org/2000/svg">
<g id="fill-t" clip-path="url(#clip0_884_18695)">
<path d="M35.728 29.6861L34.314 28.2721L25 37.5861V39.0001H26.414L35.728 29.6861ZM37.142 28.2721L38.556 26.8581L37.142 25.4441L35.728 26.8581L37.142 28.2721ZM27.242 41.0001H23V36.7571L36.435 23.3221C36.6225 23.1346 36.8768 23.0293 37.142 23.0293C37.4072 23.0293 37.6615 23.1346 37.849 23.3221L40.678 26.1511C40.8655 26.3386 40.9708 26.5929 40.9708 26.8581C40.9708 27.1232 40.8655 27.3776 40.678 27.5651L27.243 41.0001H27.242Z" fill="#222222"/>
</g>
<g id="fill-f" clip-path="url(#clip1_884_18695)">
<path d="M32.9 70.8581L37.142 75.1011L27.242 85.0001H23V80.7571L32.9 70.8571V70.8581ZM34.314 69.4441L36.435 67.3221C36.6225 67.1346 36.8768 67.0293 37.142 67.0293C37.4072 67.0293 37.6615 67.1346 37.849 67.3221L40.678 70.1511C40.8655 70.3386 40.9708 70.5929 40.9708 70.8581C40.9708 71.1232 40.8655 71.3776 40.678 71.5651L38.556 73.6861L34.314 69.4441Z" fill="#222222"/>
</g>
</svg>
