<svg width="64" height="108" viewBox="0 0 64 108" fill="none" xmlns="http://www.w3.org/2000/svg">
<g id="fill-t" clip-path="url(#clip0_884_18519)">
<path d="M32.0002 23C37.3922 23 41.8782 26.88 42.8192 32C41.8792 37.12 37.3922 41 32.0002 41C26.6082 41 22.1222 37.12 21.1812 32C22.1212 26.88 26.6082 23 32.0002 23ZM32.0002 39C34.0396 38.9996 36.0185 38.3068 37.613 37.0352C39.2075 35.7635 40.3231 33.9883 40.7772 32C40.3214 30.0133 39.2051 28.24 37.6108 26.97C36.0165 25.7 34.0385 25.0085 32.0002 25.0085C29.9618 25.0085 27.9838 25.7 26.3895 26.97C24.7952 28.24 23.6789 30.0133 23.2232 32C23.6772 33.9883 24.7928 35.7635 26.3873 37.0352C27.9818 38.3068 29.9607 38.9996 32.0002 39ZM32.0002 36.5C30.8067 36.5 29.6621 36.0259 28.8182 35.182C27.9743 34.3381 27.5002 33.1935 27.5002 32C27.5002 30.8065 27.9743 29.6619 28.8182 28.818C29.6621 27.9741 30.8067 27.5 32.0002 27.5C33.1936 27.5 34.3382 27.9741 35.1821 28.818C36.026 29.6619 36.5002 30.8065 36.5002 32C36.5002 33.1935 36.026 34.3381 35.1821 35.182C34.3382 36.0259 33.1936 36.5 32.0002 36.5ZM32.0002 34.5C32.6632 34.5 33.2991 34.2366 33.7679 33.7678C34.2368 33.2989 34.5002 32.663 34.5002 32C34.5002 31.337 34.2368 30.7011 33.7679 30.2322C33.2991 29.7634 32.6632 29.5 32.0002 29.5C31.3371 29.5 30.7012 29.7634 30.2324 30.2322C29.7635 30.7011 29.5002 31.337 29.5002 32C29.5002 32.663 29.7635 33.2989 30.2324 33.7678C30.7012 34.2366 31.3371 34.5 32.0002 34.5Z" fill="#222222"/>
</g>
<g id="fill-f" clip-path="url(#clip1_884_18519)">
<path d="M21.1812 76C22.1212 70.88 26.6082 67 32.0002 67C37.3922 67 41.8782 70.88 42.8192 76C41.8792 81.12 37.3922 85 32.0002 85C26.6082 85 22.1222 81.12 21.1812 76ZM32.0002 81C33.3262 81 34.598 80.4732 35.5357 79.5355C36.4734 78.5979 37.0002 77.3261 37.0002 76C37.0002 74.6739 36.4734 73.4021 35.5357 72.4645C34.598 71.5268 33.3262 71 32.0002 71C30.6741 71 29.4023 71.5268 28.4646 72.4645C27.5269 73.4021 27.0002 74.6739 27.0002 76C27.0002 77.3261 27.5269 78.5979 28.4646 79.5355C29.4023 80.4732 30.6741 81 32.0002 81ZM32.0002 79C31.2045 79 30.4414 78.6839 29.8788 78.1213C29.3162 77.5587 29.0002 76.7956 29.0002 76C29.0002 75.2044 29.3162 74.4413 29.8788 73.8787C30.4414 73.3161 31.2045 73 32.0002 73C32.7958 73 33.5589 73.3161 34.1215 73.8787C34.6841 74.4413 35.0002 75.2044 35.0002 76C35.0002 76.7956 34.6841 77.5587 34.1215 78.1213C33.5589 78.6839 32.7958 79 32.0002 79Z" fill="#222222"/>
</g>
</svg>
