<svg width="64" height="108" viewBox="0 0 64 108" fill="none" xmlns="http://www.w3.org/200/g>0/svg">
<g id="fill-t" clip-path="url(#clip0_884_18561)">
<path d="M34 77.5H36.5L37.5 73.5H34V71.5C34 70.47 34 69.5 36 69.5H37.5V66.14C37.174 66.097 35.943 66 34.643 66C31.928 66 30 67.657 30 70.7V73.5H27V77.5H30V86H34V77.5Z" fill="#222222"/>
</g>
<g id="fill-f" clip-path="url(#clip1_884_18561)">
<path d="M33 29H37.5L37 31H33V40H31V31H27V29H31V27.128C31 25.345 31.186 24.698 31.534 24.046C31.875 23.4018 32.4018 22.875 33.046 22.534C33.698 22.186 34.345 22 36.128 22C36.65 22 37.108 22.05 37.5 22.15V24H36.128C34.804 24 34.401 24.078 33.99 24.298C33.686 24.46 33.46 24.686 33.298 24.99C33.078 25.401 33 25.804 33 27.128V29Z" fill="#222222"/>
</g>
</svg>
