<svg width="108" height="108" viewBox="0 0 108 108" fill="none" xmlns="http://www.w3.org/2000/svg">
<g id="ft-funnel" clip-path="url(#clip0_884_18437)">
<path d="M85 24V26H84L79 33.5V42H73V33.5L68 26H67V24H85ZM70.404 26L75 32.894V40H77V32.894L81.596 26H70.404Z" fill="#222222"/>
</g>
<g id="ft-equalizer" clip-path="url(#clip1_884_18437)">
<path d="M26.17 37.9995C26.3766 37.414 26.7597 36.907 27.2666 36.5483C27.7735 36.1897 28.3791 35.9971 29 35.9971C29.6209 35.9971 30.2265 36.1897 30.7334 36.5483C31.2403 36.907 31.6234 37.414 31.83 37.9995H42V39.9995H31.83C31.6234 40.5851 31.2403 41.0921 30.7334 41.4507C30.2265 41.8094 29.6209 42.002 29 42.002C28.3791 42.002 27.7735 41.8094 27.2666 41.4507C26.7597 41.0921 26.3766 40.5851 26.17 39.9995H22V37.9995H26.17ZM32.17 30.9995C32.3766 30.414 32.7597 29.907 33.2666 29.5483C33.7735 29.1897 34.3791 28.9971 35 28.9971C35.6209 28.9971 36.2265 29.1897 36.7334 29.5483C37.2403 29.907 37.6234 30.414 37.83 30.9995H42V32.9995H37.83C37.6234 33.5851 37.2403 34.0921 36.7334 34.4507C36.2265 34.8094 35.6209 35.002 35 35.002C34.3791 35.002 33.7735 34.8094 33.2666 34.4507C32.7597 34.0921 32.3766 33.5851 32.17 32.9995H22V30.9995H32.17ZM26.17 23.9995C26.3766 23.414 26.7597 22.907 27.2666 22.5483C27.7735 22.1897 28.3791 21.9971 29 21.9971C29.6209 21.9971 30.2265 22.1897 30.7334 22.5483C31.2403 22.907 31.6234 23.414 31.83 23.9995H42V25.9995H31.83C31.6234 26.5851 31.2403 27.0921 30.7334 27.4507C30.2265 27.8094 29.6209 28.002 29 28.002C28.3791 28.002 27.7735 27.8094 27.2666 27.4507C26.7597 27.0921 26.3766 26.5851 26.17 25.9995H22V23.9995H26.17ZM29 25.9995C29.2652 25.9995 29.5196 25.8942 29.7071 25.7066C29.8946 25.5191 30 25.2647 30 24.9995C30 24.7343 29.8946 24.48 29.7071 24.2924C29.5196 24.1049 29.2652 23.9995 29 23.9995C28.7348 23.9995 28.4804 24.1049 28.2929 24.2924C28.1054 24.48 28 24.7343 28 24.9995C28 25.2647 28.1054 25.5191 28.2929 25.7066C28.4804 25.8942 28.7348 25.9995 29 25.9995ZM35 32.9995C35.2652 32.9995 35.5196 32.8942 35.7071 32.7066C35.8946 32.5191 36 32.2647 36 31.9995C36 31.7343 35.8946 31.48 35.7071 31.2924C35.5196 31.1049 35.2652 30.9995 35 30.9995C34.7348 30.9995 34.4804 31.1049 34.2929 31.2924C34.1054 31.48 34 31.7343 34 31.9995C34 32.2647 34.1054 32.5191 34.2929 32.7066C34.4804 32.8942 34.7348 32.9995 35 32.9995ZM29 39.9995C29.2652 39.9995 29.5196 39.8942 29.7071 39.7066C29.8946 39.5191 30 39.2647 30 38.9995C30 38.7343 29.8946 38.4799 29.7071 38.2924C29.5196 38.1049 29.2652 37.9995 29 37.9995C28.7348 37.9995 28.4804 38.1049 28.2929 38.2924C28.1054 38.4799 28 38.7343 28 38.9995C28 39.2647 28.1054 39.5191 28.2929 39.7066C28.4804 39.8942 28.7348 39.9995 29 39.9995Z" fill="#222222"/>
</g>
<g id="ff-equalizer" clip-path="url(#clip2_884_18437)">
<path d="M26.17 81.9995C26.3766 81.414 26.7597 80.907 27.2666 80.5483C27.7735 80.1897 28.3791 79.9971 29 79.9971C29.6209 79.9971 30.2265 80.1897 30.7334 80.5483C31.2403 80.907 31.6234 81.414 31.83 81.9995H42V83.9995H31.83C31.6234 84.5851 31.2403 85.0921 30.7334 85.4507C30.2265 85.8094 29.6209 86.002 29 86.002C28.3791 86.002 27.7735 85.8094 27.2666 85.4507C26.7597 85.0921 26.3766 84.5851 26.17 83.9995H22V81.9995H26.17ZM32.17 74.9995C32.3766 74.414 32.7597 73.907 33.2666 73.5483C33.7735 73.1897 34.3791 72.9971 35 72.9971C35.6209 72.9971 36.2265 73.1897 36.7334 73.5483C37.2403 73.907 37.6234 74.414 37.83 74.9995H42V76.9995H37.83C37.6234 77.5851 37.2403 78.0921 36.7334 78.4507C36.2265 78.8094 35.6209 79.002 35 79.002C34.3791 79.002 33.7735 78.8094 33.2666 78.4507C32.7597 78.0921 32.3766 77.5851 32.17 76.9995H22V74.9995H32.17ZM26.17 67.9995C26.3766 67.414 26.7597 66.907 27.2666 66.5483C27.7735 66.1897 28.3791 65.9971 29 65.9971C29.6209 65.9971 30.2265 66.1897 30.7334 66.5483C31.2403 66.907 31.6234 67.414 31.83 67.9995H42V69.9995H31.83C31.6234 70.5851 31.2403 71.0921 30.7334 71.4507C30.2265 71.8094 29.6209 72.002 29 72.002C28.3791 72.002 27.7735 71.8094 27.2666 71.4507C26.7597 71.0921 26.3766 70.5851 26.17 69.9995H22V67.9995H26.17Z" fill="#222222"/>
</g>
<g id="ff-funnel" clip-path="url(#clip3_884_18437)">
<path d="M85 68V70H84L78 79V86H74V79L68 70H67V68H85Z" fill="#222222"/>
</g>
</svg>
