<svg width="64" height="108" viewBox="0 0 64 108" fill="none" xmlns="http://www.w3.org/2000/svg">
<g id="fill-t" clip-path="url(#clip0_884_18774)">
<path d="M32 42C26.477 42 22 37.523 22 32C22 26.477 26.477 22 32 22C37.523 22 42 26.477 42 32C42 37.523 37.523 42 32 42ZM29.71 39.667C28.7234 37.5743 28.1519 35.3102 28.027 33H24.062C24.2566 34.5389 24.8939 35.9882 25.8966 37.1717C26.8992 38.3552 28.224 39.2221 29.71 39.667ZM30.03 33C30.181 35.439 30.878 37.73 32 39.752C33.1523 37.6766 33.8254 35.3695 33.97 33H30.03ZM39.938 33H35.973C35.8481 35.3102 35.2766 37.5743 34.29 39.667C35.776 39.2221 37.1008 38.3552 38.1034 37.1717C39.1061 35.9882 39.7434 34.5389 39.938 33ZM24.062 31H28.027C28.1519 28.6898 28.7234 26.4257 29.71 24.333C28.224 24.7779 26.8992 25.6448 25.8966 26.8283C24.8939 28.0118 24.2566 29.4611 24.062 31ZM30.031 31H33.969C33.8248 28.6306 33.152 26.3235 32 24.248C30.8477 26.3234 30.1746 28.6305 30.03 31H30.031ZM34.29 24.333C35.2766 26.4257 35.8481 28.6898 35.973 31H39.938C39.7434 29.4611 39.1061 28.0118 38.1034 26.8283C37.1008 25.6448 35.776 24.7779 34.29 24.333Z" fill="#222222"/>
</g>
<g id="fill-f" clip-path="url(#clip1_884_18774)">
<path d="M22.0498 77.0001H27.5268C27.6979 80.167 28.7074 83.2315 30.4518 85.8801C28.2667 85.5369 26.257 84.4793 24.7368 82.8726C23.2166 81.2659 22.2717 79.2008 22.0498 77.0001ZM22.0498 75.0001C22.2717 72.7994 23.2166 70.7343 24.7368 69.1276C26.257 67.521 28.2667 66.4633 30.4518 66.1201C28.7074 68.7687 27.6979 71.8333 27.5268 75.0001H22.0498ZM41.9498 75.0001H36.4728C36.3017 71.8333 35.2923 68.7687 33.5478 66.1201C35.7329 66.4633 37.7426 67.521 39.2628 69.1276C40.783 70.7343 41.7279 72.7994 41.9498 75.0001ZM41.9498 77.0001C41.7279 79.2008 40.783 81.2659 39.2628 82.8726C37.7426 84.4793 35.7329 85.5369 33.5478 85.8801C35.2923 83.2315 36.3017 80.167 36.4728 77.0001H41.9508H41.9498ZM29.5298 77.0001H34.4698C34.3052 79.6996 33.4551 82.3126 31.9998 84.5921C30.5445 82.3126 29.6944 79.6996 29.5298 77.0001ZM29.5298 75.0001C29.6944 72.3006 30.5445 69.6877 31.9998 67.4081C33.4551 69.6877 34.3052 72.3006 34.4698 75.0001H29.5298Z" fill="#222222"/>
</g>
</svg>
