<svg width="64" height="108" viewBox="0 0 64 108" fill="none" xmlns="http://www.w3.org/2000/svg">
<g id="fill-t" clip-path="url(#clip0_884_18582)">
<path d="M23.064 71.51C23.896 69.8532 25.1724 68.4605 26.7504 67.4875C28.3285 66.5144 30.1461 65.9994 32 66C34.695 66 36.959 66.99 38.69 68.605L35.823 71.473C34.786 70.482 33.468 69.977 32 69.977C29.395 69.977 27.19 71.737 26.405 74.1C26.205 74.7 26.091 75.34 26.091 76C26.091 76.66 26.205 77.3 26.405 77.9C27.191 80.264 29.395 82.023 32 82.023C33.345 82.023 34.49 81.668 35.386 81.068C35.9054 80.726 36.3501 80.2822 36.6932 79.7635C37.0363 79.2448 37.2706 78.6619 37.382 78.05H32V74.182H41.418C41.536 74.836 41.6 75.518 41.6 76.227C41.6 79.273 40.51 81.837 38.618 83.577C36.964 85.105 34.7 86 32 86C30.6866 86.0005 29.386 85.7422 28.1725 85.2399C26.9591 84.7375 25.8565 84.0009 24.9278 83.0722C23.9991 82.1436 23.2625 81.041 22.7601 79.8275C22.2578 78.614 21.9995 77.3134 22 76C22 74.386 22.386 72.86 23.064 71.51Z" fill="#222222"/>
</g>
<g id="fill-f" clip-path="url(#clip1_884_18582)">
<path d="M32 31H40.533C40.577 31.385 40.6 31.78 40.6 32.184C40.6 34.918 39.62 37.22 37.922 38.784C36.437 40.155 34.404 40.959 31.98 40.959C30.8007 40.9595 29.6328 40.7276 28.5431 40.2766C27.4534 39.8256 26.4633 39.1642 25.6294 38.3303C24.7954 37.4965 24.1339 36.5064 23.6828 35.4168C23.2316 34.3272 22.9996 33.1593 23 31.98C22.9995 30.8006 23.2314 29.6326 23.6825 28.5429C24.1336 27.4531 24.795 26.463 25.629 25.629C26.463 24.795 27.4531 24.1336 28.5429 23.6825C29.6326 23.2314 30.8006 22.9995 31.98 23C34.4 23 36.433 23.89 37.988 25.339L36.526 26.8C35.368 25.681 33.803 25 32 25C31.0807 25 30.1705 25.1811 29.3212 25.5328C28.4719 25.8846 27.7003 26.4002 27.0503 27.0503C26.4002 27.7003 25.8846 28.4719 25.5328 29.3212C25.1811 30.1705 25 31.0807 25 32C25 32.9193 25.1811 33.8295 25.5328 34.6788C25.8846 35.5281 26.4002 36.2997 27.0503 36.9497C27.7003 37.5998 28.4719 38.1154 29.3212 38.4672C30.1705 38.8189 31.0807 39 32 39C35.526 39 38.144 36.392 38.577 33H32V31Z" fill="#222222"/>
</g>
</svg>
