<svg width="40" height="40" viewBox="0 0 40 40" fill="none" xmlns="http://www.w3.org/2000/svg">
<g clip-path="url(#clip0_894_100)">
<path d="M23.8838 12.7812L25.5209 11.1442L28.9022 14.5255L27.2651 16.1626L23.8838 12.7812Z" fill="#222222"/>
<path d="M20.6094 16.0557L22.2465 14.4186L25.6278 17.7999L23.9907 19.437L20.6094 16.0557Z" fill="#222222"/>
<path d="M29.4627 5.18964C29.2756 5.2787 29.1923 5.4976 29.2731 5.68792L29.2883 5.72378L29.681 6.99174C29.66 7.01065 29.639 7.02948 29.6186 7.04979L27.1626 9.50573L30.5445 12.8875L33.0005 10.4316C33.028 10.4041 33.0541 10.3759 33.079 10.3472L34.3484 10.7404C34.5302 10.7967 34.7291 10.7096 34.8109 10.5376C36.4045 7.1894 39.6355 5.63643 39.7769 5.56987C39.8714 5.52604 39.9452 5.4444 39.9793 5.34581C40.0134 5.24737 40.0058 5.1376 39.9586 5.04471L38.3318 1.84659C38.3134 1.81034 38.2894 1.77737 38.2605 1.74862C38.2318 1.71987 38.1988 1.69588 38.1627 1.67753L35.01 0.0738536L34.9831 0.0572911C34.9025 0.00760357 34.8067 -0.0105995 34.7133 0.00596295C34.5892 0.0279942 34.4836 0.1094 34.4306 0.223775C34.4151 0.257213 32.8436 3.58057 29.4627 5.18964Z" fill="#222222"/>
<path d="M20.8807 30.2373C20.8371 29.5352 21.2891 28.908 21.9554 28.746C23.1296 28.4604 24.2018 27.8536 25.0561 26.9912C25.6635 26.378 26.136 25.6623 26.4607 24.864C26.6364 24.4322 26.5357 23.9379 26.207 23.6093C26.202 23.6043 26.1969 23.5993 26.1918 23.5944C25.8511 23.2659 25.3448 23.1779 24.9132 23.3721C23.7363 23.9015 22.1474 23.6119 20.7479 22.6839L22.3576 21.0742L18.9757 17.6924L17.9562 18.7119C17.7318 17.5912 17.932 16.5384 18.6134 15.857C18.8093 15.6611 19.0396 15.5004 19.2982 15.3792C19.7459 15.1694 20.0109 14.6984 19.9579 14.2067C19.9049 13.7151 19.5454 13.3114 19.0632 13.2019C16.8545 12.7002 14.5829 13.3463 12.9865 14.9302C12.1223 15.7877 11.5156 16.8639 11.2321 18.0425C11.0721 18.7079 10.4451 19.1604 9.74137 19.1183C7.06559 18.9582 4.45145 19.946 2.5691 21.8284C-0.856367 25.2539 -0.856367 30.8275 2.5691 34.2529L5.7473 37.431C9.17277 40.8565 14.7464 40.8565 18.1718 37.431C20.0601 35.5427 21.0474 32.9208 20.8807 30.2373ZM11.8378 30.6026L9.39762 28.1625C8.94551 27.7104 8.94551 26.9773 9.39762 26.5251C9.84973 26.073 10.5828 26.073 11.035 26.5251L13.4751 28.9653C13.9272 29.4174 13.9272 30.1504 13.4751 30.6026C13.0229 31.0547 12.2899 31.0547 11.8378 30.6026ZM15.498 26.9424L13.0579 24.5022C12.6057 24.0501 12.6057 23.3171 13.0579 22.8649C13.51 22.4128 14.243 22.4128 14.6952 22.8649L17.1354 25.305C17.5875 25.7572 17.5875 26.4902 17.1354 26.9424C16.6832 27.3945 15.9501 27.3945 15.498 26.9424Z" fill="#222222"/>
</g>
<defs>
<clipPath id="clip0_894_100">
<rect width="40" height="40" fill="white"/>
</clipPath>
</defs>
</svg>
