<svg width="64" height="108" viewBox="0 0 64 108" fill="none" xmlns="http://www.w3.org/2000/svg">
<g id="fill-t" clip-path="url(#clip0_884_18795)">
<path d="M23.161 24.4687C24.3211 23.3084 25.877 22.6298 27.5166 22.5689C29.1562 22.5081 30.7582 23.0696 32.001 24.1407C33.2428 23.0713 34.8426 22.5105 36.4803 22.5704C38.1179 22.6304 39.6724 23.3066 40.8327 24.4639C41.993 25.6211 42.6733 27.1739 42.7375 28.8114C42.8018 30.4488 42.2451 32.0501 41.179 33.2947L33.414 41.0847C33.0573 41.4416 32.5788 41.6504 32.0746 41.6693C31.5703 41.6882 31.0775 41.5158 30.695 41.1867L30.585 41.0857L22.821 33.2947C21.7555 32.0512 21.1986 30.4514 21.2617 28.8151C21.3247 27.1787 22.003 25.6265 23.161 24.4687ZM24.575 25.8827C23.7573 26.7007 23.2859 27.8021 23.2587 28.9584C23.2315 30.1148 23.6506 31.2372 24.429 32.0927L24.575 32.2467L32 39.6717L37.303 34.3677L33.768 30.8327L32.708 31.8927C32.4295 32.1713 32.0988 32.3924 31.7348 32.5433C31.3709 32.6941 30.9807 32.7718 30.5868 32.7719C29.791 32.7721 29.0278 32.4562 28.465 31.8937C27.9023 31.3312 27.586 30.5681 27.5858 29.7724C27.5856 28.9767 27.9015 28.2135 28.464 27.6507L30.566 25.5477C29.7295 24.8801 28.6825 24.5324 27.6127 24.567C26.543 24.6016 25.5206 25.0163 24.729 25.7367L24.575 25.8827ZM33.061 28.7107C33.2486 28.5232 33.5029 28.4179 33.768 28.4179C34.0332 28.4179 34.2875 28.5232 34.475 28.7107L38.717 32.9527L39.425 32.2467C40.2565 31.4158 40.7299 30.2926 40.7439 29.1172C40.7579 27.9419 40.3115 26.8077 39.5001 25.9572C38.6887 25.1068 37.5767 24.6075 36.402 24.5663C35.2273 24.5251 34.0831 24.9452 33.214 25.7367L33.061 25.8827L29.879 29.0647C29.7057 29.2379 29.602 29.4687 29.5876 29.7133C29.5733 29.958 29.6492 30.1993 29.801 30.3917L29.879 30.4787C30.0523 30.652 30.2831 30.7557 30.5277 30.7701C30.7723 30.7845 31.0137 30.7085 31.206 30.5567L31.293 30.4787L33.061 28.7107Z" fill="#222222"/>
</g>
<g id="fill-f" clip-path="url(#clip1_884_18795)">
<path d="M34.121 74.4799C33.9334 74.2924 33.6791 74.1871 33.414 74.1871C33.1488 74.1871 32.8945 74.2924 32.707 74.4799L32 75.1859C31.8155 75.3769 31.5948 75.5293 31.3508 75.6341C31.1068 75.7389 30.8443 75.7941 30.5788 75.7964C30.3132 75.7987 30.0498 75.7481 29.8041 75.6475C29.5583 75.5469 29.335 75.3984 29.1472 75.2107C28.9594 75.0229 28.8109 74.7996 28.7103 74.5538C28.6098 74.308 28.5592 74.0446 28.5615 73.7791C28.5638 73.5135 28.6189 73.2511 28.7238 73.0071C28.8286 72.763 28.9809 72.5424 29.172 72.3579L34.802 66.7259C36.1349 66.4227 37.5295 66.5475 38.7874 67.0824C40.0453 67.6174 41.1026 68.5354 41.8088 69.7058C42.5151 70.8762 42.8344 72.2394 42.7213 73.6017C42.6082 74.964 42.0685 76.2559 41.179 77.2939L39.071 79.4289L34.121 74.4789V74.4799ZM23.161 68.4679C24.1957 67.4332 25.5492 66.7778 27.0025 66.6076C28.4559 66.4374 29.9241 66.7623 31.17 67.5299L27.757 70.9439C27.0178 71.6816 26.5964 72.6792 26.5829 73.7234C26.5694 74.7677 26.9648 75.7758 27.6847 76.5324C28.4046 77.289 29.3919 77.734 30.4355 77.7724C31.4792 77.8108 32.4964 77.4395 33.27 76.7379L33.414 76.6009L37.657 80.8429L33.414 85.0859C33.0389 85.4608 32.5303 85.6714 32 85.6714C31.4696 85.6714 30.961 85.4608 30.586 85.0859L23.16 77.6599C21.9411 76.4409 21.2563 74.7877 21.2563 73.0639C21.2563 71.3401 21.9411 69.6868 23.16 68.4679H23.161Z" fill="#222222"/>
</g>
</svg>
