<svg width="64" height="108" viewBox="0 0 64 108" fill="none" xmlns="http://www.w3.org/2000/svg">
<g id="fill-t" clip-path="url(#clip0_884_18491)">
<path d="M32.001 24.529C34.35 22.42 37.98 22.49 40.243 24.757C42.505 27.025 42.583 30.637 40.479 32.993L31.999 41.485L23.521 32.993C21.417 30.637 21.496 27.019 23.757 24.757C26.022 22.493 29.645 22.417 32.001 24.529ZM38.827 26.17C37.327 24.668 34.907 24.607 33.337 26.017L32.002 27.215L30.666 26.018C29.091 24.606 26.676 24.668 25.172 26.172C23.682 27.662 23.607 30.047 24.98 31.623L32 38.654L39.02 31.624C40.394 30.047 40.319 27.665 38.827 26.17Z" fill="#222222"/>
</g>
<g id="fill-f" clip-path="url(#clip1_884_18491)">
<path d="M32.001 68.529C34.35 66.42 37.98 66.49 40.243 68.757C42.505 71.025 42.583 74.637 40.479 76.993L31.999 85.485L23.521 76.993C21.417 74.637 21.496 71.019 23.757 68.757C26.022 66.493 29.645 66.417 32.001 68.529Z" fill="#222222"/>
</g>
</svg>
