<svg width="64" height="108" viewBox="0 0 64 108" fill="none" xmlns="http://www.w3.org/2000/svg">
<g id="fill-t" clip-path="url(#clip0_884_18575)">
<path d="M38.335 82.339H35.67V78.162C35.67 77.166 35.65 75.884 34.28 75.884C32.891 75.884 32.679 76.968 32.679 78.089V82.339H30.013V73.75H32.573V74.92H32.608C32.966 74.246 33.836 73.533 35.136 73.533C37.836 73.533 38.336 75.311 38.336 77.624V82.339H38.335ZM27.003 72.575C26.7996 72.5753 26.5981 72.5354 26.4101 72.4576C26.2221 72.3798 26.0513 72.2657 25.9075 72.1218C25.7636 71.9779 25.6497 71.8071 25.572 71.619C25.4944 71.431 25.4546 71.2294 25.455 71.026C25.4552 70.7198 25.5462 70.4206 25.7164 70.1661C25.8867 69.9117 26.1286 69.7134 26.4115 69.5965C26.6945 69.4795 27.0057 69.449 27.306 69.5089C27.6062 69.5689 27.882 69.7165 28.0983 69.9331C28.3147 70.1497 28.4619 70.4257 28.5215 70.726C28.581 71.0263 28.5501 71.3375 28.4328 71.6203C28.3154 71.9031 28.1169 72.1447 27.8622 72.3147C27.6075 72.4846 27.3082 72.5752 27.002 72.575H27.003ZM28.339 82.339H25.666V73.75H28.34V82.339H28.339ZM39.67 67H24.329C23.593 67 23 67.58 23 68.297V83.703C23 84.42 23.594 85 24.328 85H39.666C40.4 85 41 84.42 41 83.703V68.297C41 67.58 40.4 67 39.666 67H39.669H39.67Z" fill="#222222"/>
</g>
<g id="fill-f" clip-path="url(#clip1_884_18575)">
<path d="M24 23H40C40.2652 23 40.5196 23.1054 40.7071 23.2929C40.8946 23.4804 41 23.7348 41 24V40C41 40.2652 40.8946 40.5196 40.7071 40.7071C40.5196 40.8946 40.2652 41 40 41H24C23.7348 41 23.4804 40.8946 23.2929 40.7071C23.1054 40.5196 23 40.2652 23 40V24C23 23.7348 23.1054 23.4804 23.2929 23.2929C23.4804 23.1054 23.7348 23 24 23ZM25 25V39H39V25H25ZM27.5 29C27.1022 29 26.7206 28.842 26.4393 28.5607C26.158 28.2794 26 27.8978 26 27.5C26 27.1022 26.158 26.7206 26.4393 26.4393C26.7206 26.158 27.1022 26 27.5 26C27.8978 26 28.2794 26.158 28.5607 26.4393C28.842 26.7206 29 27.1022 29 27.5C29 27.8978 28.842 28.2794 28.5607 28.5607C28.2794 28.842 27.8978 29 27.5 29ZM26.5 30H28.5V37.5H26.5V30ZM32 30.43C32.584 29.865 33.266 29.5 34 29.5C36.071 29.5 37.5 31.179 37.5 33.25V37.5H35.5V33.25C35.5 32.7859 35.3156 32.3408 34.9874 32.0126C34.6592 31.6844 34.2141 31.5 33.75 31.5C33.2859 31.5 32.8408 31.6844 32.5126 32.0126C32.1844 32.3408 32 32.7859 32 33.25V37.5H30V30H32V30.43Z" fill="#222222"/>
</g>
</svg>
