<svg width="64" height="108" viewBox="0 0 64 108" fill="none" xmlns="http://www.w3.org/2000/svg">
<g id="fill-t" clip-path="url(#clip0_884_18923)">
<path d="M36 24C36.2652 24 36.5196 24.1054 36.7071 24.2929C36.8946 24.4804 37 24.7348 37 25V29.2L42.213 25.55C42.288 25.4975 42.3759 25.4665 42.4672 25.4605C42.5586 25.4545 42.6498 25.4737 42.731 25.516C42.8122 25.5583 42.8802 25.6221 42.9276 25.7004C42.9751 25.7786 43.0001 25.8685 43 25.96V38.04C43.0001 38.1315 42.9751 38.2214 42.9276 38.2996C42.8802 38.3779 42.8122 38.4417 42.731 38.484C42.6498 38.5263 42.5586 38.5455 42.4672 38.5395C42.3759 38.5335 42.288 38.5025 42.213 38.45L37 34.8V39C37 39.2652 36.8946 39.5196 36.7071 39.7071C36.5196 39.8946 36.2652 40 36 40H22C21.7348 40 21.4804 39.8946 21.2929 39.7071C21.1054 39.5196 21 39.2652 21 39V25C21 24.7348 21.1054 24.4804 21.2929 24.2929C21.4804 24.1054 21.7348 24 22 24H36ZM35 26H23V38H35V26ZM27.4 28.829C27.4761 28.8288 27.5507 28.8503 27.615 28.891L31.97 31.663C32.0266 31.6992 32.0731 31.749 32.1054 31.8079C32.1376 31.8668 32.1545 31.9329 32.1545 32C32.1545 32.0671 32.1376 32.1332 32.1054 32.1921C32.0731 32.251 32.0266 32.3008 31.97 32.337L27.615 35.11C27.5543 35.1487 27.4844 35.1703 27.4125 35.1725C27.3406 35.1748 27.2694 35.1576 27.2065 35.1228C27.1435 35.088 27.0911 35.0368 27.0548 34.9747C27.0184 34.9127 26.9995 34.8419 27 34.77V29.23C27 29.009 27.18 28.83 27.4 28.83V28.829ZM41 28.84L37 31.64V32.358L41 35.158V28.84Z" fill="#222222"/>
</g>
<g id="fill-f" clip-path="url(#clip1_884_18923)">
<path d="M36 68C36.2652 68 36.5196 68.1054 36.7071 68.2929C36.8946 68.4804 37 68.7348 37 69V73.2L42.213 69.55C42.288 69.4975 42.3759 69.4665 42.4672 69.4605C42.5586 69.4545 42.6498 69.4737 42.731 69.516C42.8122 69.5583 42.8802 69.6221 42.9276 69.7004C42.9751 69.7786 43.0001 69.8685 43 69.96V82.04C43.0001 82.1315 42.9751 82.2214 42.9276 82.2996C42.8802 82.3779 42.8122 82.4417 42.731 82.484C42.6498 82.5263 42.5586 82.5455 42.4672 82.5395C42.3759 82.5335 42.288 82.5025 42.213 82.45L37 78.8V83C37 83.2652 36.8946 83.5196 36.7071 83.7071C36.5196 83.8946 36.2652 84 36 84H22C21.7348 84 21.4804 83.8946 21.2929 83.7071C21.1054 83.5196 21 83.2652 21 83V69C21 68.7348 21.1054 68.4804 21.2929 68.2929C21.4804 68.1054 21.7348 68 22 68H36ZM27.4 72.829C27.3078 72.829 27.2184 72.8608 27.147 72.9191C27.0755 72.9774 27.0264 73.0587 27.008 73.149L27 73.228V78.77C27 78.8348 27.0157 78.8986 27.0458 78.9559C27.0759 79.0133 27.1195 79.0625 27.1728 79.0993C27.2261 79.1361 27.2876 79.1594 27.3519 79.1672C27.4162 79.1749 27.4814 79.167 27.542 79.144L27.615 79.108L31.97 76.336C32.0208 76.3035 32.0636 76.2599 32.0952 76.2085C32.1268 76.1571 32.1464 76.0993 32.1524 76.0392C32.1585 75.9792 32.1509 75.9186 32.1302 75.8619C32.1095 75.8053 32.0763 75.754 32.033 75.712L31.97 75.662L27.615 72.89C27.5505 72.85 27.4759 72.8292 27.4 72.83V72.829Z" fill="#222222"/>
</g>
</svg>
