<svg width="64" height="108" viewBox="0 0 64 108" fill="none" xmlns="http://www.w3.org/2000/svg">
<g id="fill-t" clip-path="url(#clip0_884_18533)">
<path d="M26 28V27C26 25.4087 26.6321 23.8826 27.7574 22.7574C28.8826 21.6321 30.4087 21 32 21C33.5913 21 35.1174 21.6321 36.2426 22.7574C37.3679 23.8826 38 25.4087 38 27V28H40C40.2652 28 40.5196 28.1054 40.7071 28.2929C40.8946 28.4804 41 28.7348 41 29V41C41 41.2652 40.8946 41.5196 40.7071 41.7071C40.5196 41.8946 40.2652 42 40 42H24C23.7348 42 23.4804 41.8946 23.2929 41.7071C23.1054 41.5196 23 41.2652 23 41V29C23 28.7348 23.1054 28.4804 23.2929 28.2929C23.4804 28.1054 23.7348 28 24 28H26ZM39 30H25V40H39V30ZM31 35.732C30.6187 35.5119 30.3207 35.1721 30.1522 34.7653C29.9838 34.3586 29.9542 33.9076 30.0681 33.4823C30.1821 33.057 30.4332 32.6813 30.7825 32.4132C31.1318 32.1452 31.5597 31.9999 32 31.9999C32.4403 31.9999 32.8682 32.1452 33.2175 32.4132C33.5668 32.6813 33.8179 33.057 33.9319 33.4823C34.0458 33.9076 34.0162 34.3586 33.8478 34.7653C33.6793 35.1721 33.3813 35.5119 33 35.732V38H31V35.732ZM28 28H36V27C36 25.9391 35.5786 24.9217 34.8284 24.1716C34.0783 23.4214 33.0609 23 32 23C30.9391 23 29.9217 23.4214 29.1716 24.1716C28.4214 24.9217 28 25.9391 28 27V28Z" fill="#222222"/>
</g>
<g id="fill-f" clip-path="url(#clip1_884_18533)">
<path d="M38 72H40C40.2652 72 40.5196 72.1054 40.7071 72.2929C40.8946 72.4804 41 72.7348 41 73V85C41 85.2652 40.8946 85.5196 40.7071 85.7071C40.5196 85.8946 40.2652 86 40 86H24C23.7348 86 23.4804 85.8946 23.2929 85.7071C23.1054 85.5196 23 85.2652 23 85V73C23 72.7348 23.1054 72.4804 23.2929 72.2929C23.4804 72.1054 23.7348 72 24 72H26V71C26 69.4087 26.6321 67.8826 27.7574 66.7574C28.8826 65.6321 30.4087 65 32 65C33.5913 65 35.1174 65.6321 36.2426 66.7574C37.3679 67.8826 38 69.4087 38 71V72ZM31 79.732V82H33V79.732C33.3813 79.5119 33.6793 79.1721 33.8478 78.7653C34.0162 78.3586 34.0458 77.9076 33.9319 77.4823C33.8179 77.057 33.5668 76.6813 33.2175 76.4132C32.8682 76.1452 32.4403 75.9999 32 75.9999C31.5597 75.9999 31.1318 76.1452 30.7825 76.4132C30.4332 76.6813 30.1821 77.057 30.0681 77.4823C29.9542 77.9076 29.9838 78.3586 30.1522 78.7653C30.3207 79.1721 30.6187 79.5119 31 79.732ZM36 72V71C36 69.9391 35.5786 68.9217 34.8284 68.1716C34.0783 67.4214 33.0609 67 32 67C30.9391 67 29.9217 67.4214 29.1716 68.1716C28.4214 68.9217 28 69.9391 28 71V72H36Z" fill="#222222"/>
</g>
</svg>
