<svg width="64" height="108" viewBox="0 0 64 108" fill="none" xmlns="http://www.w3.org/2000/svg">
<g id="fill-t" clip-path="url(#clip0_884_18477)">
<path d="M32 43.7279L25.636 37.3639C24.3773 36.1052 23.5202 34.5016 23.1729 32.7558C22.8257 31.0099 23.0039 29.2004 23.6851 27.5558C24.3663 25.9113 25.5198 24.5057 26.9999 23.5168C28.4799 22.5278 30.22 22 32 22C33.78 22 35.5201 22.5278 37.0001 23.5168C38.4802 24.5057 39.6337 25.9113 40.3149 27.5558C40.9961 29.2004 41.1743 31.0099 40.8271 32.7558C40.4798 34.5016 39.6227 36.1052 38.364 37.3639L32 43.7279ZM36.95 35.9499C37.9289 34.9709 38.5955 33.7236 38.8656 32.3658C39.1356 31.0079 38.9969 29.6005 38.4671 28.3215C37.9373 27.0424 37.04 25.9492 35.8889 25.1801C34.7378 24.411 33.3844 24.0004 32 24.0004C30.6156 24.0004 29.2622 24.411 28.1111 25.1801C26.96 25.9492 26.0628 27.0424 25.5329 28.3215C25.0031 29.6005 24.8644 31.0079 25.1345 32.3658C25.4045 33.7236 26.0711 34.9709 27.05 35.9499L32 40.8999L36.95 35.9499ZM32 32.9999C31.4696 32.9999 30.9609 32.7892 30.5858 32.4141C30.2107 32.0391 30 31.5304 30 30.9999C30 30.4695 30.2107 29.9608 30.5858 29.5857C30.9609 29.2106 31.4696 28.9999 32 28.9999C32.5304 28.9999 33.0391 29.2106 33.4142 29.5857C33.7893 29.9608 34 30.4695 34 30.9999C34 31.5304 33.7893 32.0391 33.4142 32.4141C33.0391 32.7892 32.5304 32.9999 32 32.9999Z" fill="#222222"/>
</g>
<g id="fill-f" clip-path="url(#clip1_884_18477)">
<path d="M38.364 81.3639L32 87.7279L25.636 81.3639C24.3773 80.1052 23.5202 78.5016 23.1729 76.7558C22.8257 75.0099 23.0039 73.2004 23.6851 71.5558C24.3663 69.9113 25.5198 68.5057 26.9999 67.5168C28.4799 66.5278 30.22 66 32 66C33.78 66 35.5201 66.5278 37.0001 67.5168C38.4802 68.5057 39.6337 69.9113 40.3149 71.5558C40.9961 73.2004 41.1743 75.0099 40.8271 76.7558C40.4798 78.5016 39.6227 80.1052 38.364 81.3639ZM32 76.9999C32.5304 76.9999 33.0391 76.7892 33.4142 76.4141C33.7893 76.0391 34 75.5304 34 74.9999C34 74.4695 33.7893 73.9608 33.4142 73.5857C33.0391 73.2106 32.5304 72.9999 32 72.9999C31.4696 72.9999 30.9609 73.2106 30.5858 73.5857C30.2107 73.9608 30 74.4695 30 74.9999C30 75.5304 30.2107 76.0391 30.5858 76.4141C30.9609 76.7892 31.4696 76.9999 32 76.9999Z" fill="#222222"/>
</g>
</svg>
