<svg width="64" height="108" viewBox="0 0 64 108" fill="none" xmlns="http://www.w3.org/2000/svg">
<g id="fill-t" clip-path="url(#clip0_884_18781)">
<path d="M32.0001 28.5L34.1161 33.588L39.6081 34.028L35.4241 37.612L36.7021 42.972L32.0001 40.1L27.2981 42.972L28.5761 37.612L24.3921 34.028L29.8841 33.588L32.0001 28.5ZM32.0001 33.707L31.2611 35.484L29.3451 35.637L30.8051 36.888L30.3581 38.759L32.0001 37.756L33.6411 38.759L33.1951 36.889L34.6541 35.637L32.7391 35.484L32.0001 33.707ZM28.0001 22V31H26.0001V22H28.0001ZM38.0001 22V31H36.0001V22H38.0001ZM33.0001 22V27H31.0001V22H33.0001Z" fill="#222222"/>
</g>
<g id="fill-f" clip-path="url(#clip1_884_18781)">
<path d="M32.0001 72.5L34.1161 77.588L39.6081 78.028L35.4241 81.612L36.7021 86.972L32.0001 84.1L27.2981 86.972L28.5761 81.612L24.3921 78.028L29.8841 77.588L32.0001 72.5ZM28.0001 66V75H26.0001V66H28.0001ZM38.0001 66V75H36.0001V66H38.0001ZM33.0001 66V71H31.0001V66H33.0001Z" fill="#222222"/>
</g>
</svg>
