<svg width="64" height="108" viewBox="0 0 64 108" fill="none" xmlns="http://www.w3.org/2000/svg">
<g id="fill-t" clip-path="url(#clip0_884_18767)">
<path d="M32.0002 23C31.2045 23 30.4415 23.3161 29.8789 23.8787C29.3162 24.4413 29.0002 25.2044 29.0002 26V30C29.0002 30.7956 29.3162 31.5587 29.8789 32.1213C30.4415 32.6839 31.2045 33 32.0002 33C32.7958 33 33.5589 32.6839 34.1215 32.1213C34.6841 31.5587 35.0002 30.7956 35.0002 30V26C35.0002 25.2044 34.6841 24.4413 34.1215 23.8787C33.5589 23.3161 32.7958 23 32.0002 23ZM32.0002 21C32.6568 21 33.307 21.1293 33.9136 21.3806C34.5202 21.6319 35.0714 22.0002 35.5357 22.4645C36 22.9288 36.3683 23.48 36.6196 24.0866C36.8708 24.6932 37.0002 25.3434 37.0002 26V30C37.0002 31.3261 36.4734 32.5979 35.5357 33.5355C34.598 34.4732 33.3263 35 32.0002 35C30.6741 35 29.4023 34.4732 28.4646 33.5355C27.527 32.5979 27.0002 31.3261 27.0002 30V26C27.0002 24.6739 27.527 23.4021 28.4646 22.4645C29.4023 21.5268 30.6741 21 32.0002 21ZM23.0552 31H25.0702C25.3125 32.6648 26.146 34.1867 27.4184 35.2873C28.6908 36.3879 30.3169 36.9936 31.9992 36.9936C33.6815 36.9936 35.3076 36.3879 36.5799 35.2873C37.8523 34.1867 38.6859 32.6648 38.9282 31H40.9442C40.7168 33.0287 39.8068 34.9199 38.3634 36.3635C36.92 37.8071 35.0289 38.7174 33.0002 38.945V43H31.0002V38.945C28.9713 38.7176 27.08 37.8074 25.6364 36.3638C24.1927 34.9202 23.2826 33.0289 23.0552 31Z" fill="#222222"/>
</g>
<g id="fill-f" clip-path="url(#clip1_884_18767)">
<path d="M32.0002 65C32.6568 65 33.307 65.1293 33.9136 65.3806C34.5202 65.6319 35.0714 66.0002 35.5357 66.4645C36 66.9288 36.3683 67.48 36.6196 68.0866C36.8708 68.6932 37.0002 69.3434 37.0002 70V74C37.0002 75.3261 36.4734 76.5979 35.5357 77.5355C34.598 78.4732 33.3263 79 32.0002 79C30.6741 79 29.4023 78.4732 28.4646 77.5355C27.527 76.5979 27.0002 75.3261 27.0002 74V70C27.0002 68.6739 27.527 67.4021 28.4646 66.4645C29.4023 65.5268 30.6741 65 32.0002 65ZM23.0552 75H25.0702C25.3125 76.6648 26.146 78.1867 27.4184 79.2873C28.6908 80.3879 30.3169 80.9936 31.9992 80.9936C33.6815 80.9936 35.3076 80.3879 36.5799 79.2873C37.8523 78.1867 38.6859 76.6648 38.9282 75H40.9442C40.7168 77.0287 39.8068 78.9199 38.3634 80.3635C36.92 81.8071 35.0289 82.7174 33.0002 82.945V87H31.0002V82.945C28.9713 82.7176 27.08 81.8074 25.6364 80.3638C24.1927 78.9202 23.2826 77.0289 23.0552 75Z" fill="#222222"/>
</g>
</svg>
