<svg width="64" height="108" viewBox="0 0 64 108" fill="none" xmlns="http://www.w3.org/2000/svg">
<g id="fill-t" clip-path="url(#clip0_884_18688)">
<path d="M42 40H22V38H23V31.031C23 26.043 27.03 22 32 22C36.97 22 41 26.043 41 31.031V38H42V40ZM25 38H39V31.031C39 27.148 35.866 24 32 24C28.134 24 25 27.148 25 31.031V38ZM29.5 41H34.5C34.5 41.663 34.2366 42.2989 33.7678 42.7678C33.2989 43.2366 32.663 43.5 32 43.5C31.337 43.5 30.7011 43.2366 30.2322 42.7678C29.7634 42.2989 29.5 41.663 29.5 41Z" fill="#222222"/>
</g>
<g id="fill-f" clip-path="url(#clip1_884_18688)">
<path d="M42 84H22V82H23V75.031C23 70.043 27.03 66 32 66C36.97 66 41 70.043 41 75.031V82H42V84ZM29.5 85H34.5C34.5 85.663 34.2366 86.2989 33.7678 86.7678C33.2989 87.2366 32.663 87.5 32 87.5C31.337 87.5 30.7011 87.2366 30.2322 86.7678C29.7634 86.2989 29.5 85.663 29.5 85Z" fill="#222222"/>
</g>
</svg>
