<svg width="64" height="108" viewBox="0 0 64 108" fill="none" xmlns="http://www.w3.org/2000/svg">
<g id="fiil-t" clip-path="url(#clip0_884_18505)">
<path d="M29.366 30.682C30.3043 32.3305 31.6695 33.6957 33.318 34.634L34.202 33.396C34.3442 33.1969 34.5543 33.0569 34.7928 33.0023C35.0313 32.9478 35.2814 32.9825 35.496 33.1C36.9103 33.8729 38.4722 34.3378 40.079 34.464C40.3298 34.4839 40.5638 34.5975 40.7345 34.7823C40.9052 34.9671 41 35.2094 41 35.461V39.923C41.0001 40.1706 40.9083 40.4094 40.7424 40.5932C40.5765 40.777 40.3483 40.8927 40.102 40.918C39.572 40.973 39.038 41 38.5 41C29.94 41 23 34.06 23 25.5C23 24.962 23.027 24.428 23.082 23.898C23.1073 23.6517 23.223 23.4235 23.4068 23.2576C23.5906 23.0917 23.8294 22.9999 24.077 23H28.539C28.7906 23 29.0329 23.0948 29.2177 23.2655C29.4025 23.4361 29.5161 23.6702 29.536 23.921C29.6622 25.5278 30.1271 27.0897 30.9 28.504C31.0175 28.7186 31.0522 28.9687 30.9977 29.2072C30.9431 29.4456 30.8031 29.6558 30.604 29.798L29.366 30.682ZM26.844 30.025L28.744 28.668C28.2048 27.5041 27.8354 26.2688 27.647 25H25.01C25.004 25.166 25.001 25.333 25.001 25.5C25 32.956 31.044 39 38.5 39C38.667 39 38.834 38.997 39 38.99V36.353C37.7312 36.1646 36.4959 35.7952 35.332 35.256L33.975 37.156C33.4287 36.9437 32.898 36.6931 32.387 36.406L32.329 36.373C30.3676 35.2567 28.7433 33.6324 27.627 31.671L27.594 31.613C27.3069 31.102 27.0563 30.5713 26.844 30.025Z" fill="#222222"/>
</g>
<g id="fiil-f" clip-path="url(#clip1_884_18505)">
<path d="M41 80.42V83.956C41.0001 84.2092 40.9042 84.453 40.7316 84.6382C40.559 84.8234 40.3226 84.9363 40.07 84.954C39.633 84.984 39.276 85 39 85C30.163 85 23 77.837 23 69C23 68.724 23.015 68.367 23.046 67.93C23.0637 67.6774 23.1766 67.441 23.3618 67.2684C23.547 67.0958 23.7908 66.9999 24.044 67H27.58C27.704 66.9999 27.8237 67.0459 27.9157 67.129C28.0078 67.2122 28.0656 67.3266 28.078 67.45C28.101 67.68 28.122 67.863 28.142 68.002C28.3407 69.3889 28.748 70.7378 29.35 72.003C29.445 72.203 29.383 72.442 29.203 72.57L27.045 74.112C28.3645 77.1865 30.8145 79.6365 33.889 80.956L35.429 78.802C35.4919 78.714 35.5838 78.6509 35.6885 78.6237C35.7932 78.5964 35.9042 78.6068 36.002 78.653C37.267 79.2539 38.6156 79.6601 40.002 79.858C40.141 79.878 40.324 79.9 40.552 79.922C40.6752 79.9346 40.7894 79.9926 40.8724 80.0846C40.9553 80.1766 41.0012 80.2961 41.001 80.42H41Z" fill="#222222"/>
</g>
</svg>
