<svg width="64" height="108" viewBox="0 0 64 108" fill="none" xmlns="http://www.w3.org/2000/svg">
<g id="fill-t" clip-path="url(#clip0_884_18709)">
<path d="M32 42C26.477 42 22 37.523 22 32C22 26.477 26.477 22 32 22C37.523 22 42 26.477 42 32C42 37.523 37.523 42 32 42ZM32 40C34.1217 40 36.1566 39.1571 37.6569 37.6569C39.1571 36.1566 40 34.1217 40 32C40 29.8783 39.1571 27.8434 37.6569 26.3431C36.1566 24.8429 34.1217 24 32 24C29.8783 24 27.8434 24.8429 26.3431 26.3431C24.8429 27.8434 24 29.8783 24 32C24 34.1217 24.8429 36.1566 26.3431 37.6569C27.8434 39.1571 29.8783 40 32 40ZM30.622 28.415L35.501 31.667C35.5559 31.7035 35.6009 31.753 35.632 31.8111C35.6631 31.8692 35.6794 31.9341 35.6794 32C35.6794 32.0659 35.6631 32.1308 35.632 32.1889C35.6009 32.247 35.5559 32.2965 35.501 32.333L30.621 35.585C30.5608 35.6249 30.491 35.6477 30.4189 35.6512C30.3468 35.6546 30.2751 35.6384 30.2114 35.6043C30.1477 35.5703 30.0945 35.5197 30.0573 35.4578C30.02 35.396 30.0003 35.3252 30 35.253V28.747C30.0001 28.6747 30.0199 28.6037 30.0572 28.5417C30.0944 28.4797 30.1478 28.4289 30.2116 28.3949C30.2755 28.3608 30.3473 28.3447 30.4196 28.3482C30.4919 28.3518 30.5618 28.3748 30.622 28.415Z" fill="#222222"/>
</g>
<g id="fill-f" clip-path="url(#clip1_884_18709)">
<path d="M32 86C26.477 86 22 81.523 22 76C22 70.477 26.477 66 32 66C37.523 66 42 70.477 42 76C42 81.523 37.523 86 32 86ZM30.622 72.415C30.5618 72.3748 30.4919 72.3518 30.4196 72.3482C30.3473 72.3447 30.2755 72.3608 30.2116 72.3949C30.1478 72.4289 30.0944 72.4797 30.0572 72.5417C30.0199 72.6037 30.0001 72.6747 30 72.747V79.253C30.0001 79.3253 30.0199 79.3963 30.0572 79.4583C30.0944 79.5203 30.1478 79.5711 30.2116 79.6051C30.2755 79.6392 30.3473 79.6553 30.4196 79.6518C30.4919 79.6482 30.5618 79.6252 30.622 79.585L35.501 76.333C35.5559 76.2965 35.6009 76.247 35.632 76.1889C35.6631 76.1308 35.6794 76.0659 35.6794 76C35.6794 75.9341 35.6631 75.8692 35.632 75.8111C35.6009 75.753 35.5559 75.7035 35.501 75.667L30.621 72.415H30.622Z" fill="#222222"/>
</g>
</svg>
