<svg width="64" height="108" viewBox="0 0 64 108" fill="none" xmlns="http://www.w3.org/2000/svg">
<g id="fill-t" clip-path="url(#clip0_884_18667)">
<path d="M32 42C26.477 42 22 37.523 22 32C22 26.477 26.477 22 32 22C37.523 22 42 26.477 42 32C42 37.523 37.523 42 32 42ZM32 40C34.1217 40 36.1566 39.1571 37.6569 37.6569C39.1571 36.1566 40 34.1217 40 32C40 29.8783 39.1571 27.8434 37.6569 26.3431C36.1566 24.8429 34.1217 24 32 24C29.8783 24 27.8434 24.8429 26.3431 26.3431C24.8429 27.8434 24 29.8783 24 32C24 34.1217 24.8429 36.1566 26.3431 37.6569C27.8434 39.1571 29.8783 40 32 40ZM31 35H33V37H31V35ZM33 33.355V34H31V32.5C31 32.2348 31.1054 31.9804 31.2929 31.7929C31.4804 31.6054 31.7348 31.5 32 31.5C32.2841 31.5 32.5623 31.4193 32.8023 31.2673C33.0423 31.1154 33.2343 30.8984 33.3558 30.6416C33.4773 30.3848 33.5234 30.0988 33.4887 29.8168C33.454 29.5349 33.34 29.2686 33.1598 29.0489C32.9797 28.8292 32.7409 28.6652 32.4712 28.576C32.2015 28.4867 31.912 28.4759 31.6364 28.5447C31.3608 28.6135 31.1104 28.7592 30.9144 28.9648C30.7183 29.1704 30.5847 29.4274 30.529 29.706L28.567 29.313C28.6886 28.7051 28.9695 28.1404 29.3809 27.6766C29.7923 27.2128 30.3195 26.8666 30.9086 26.6733C31.4977 26.4801 32.1275 26.4467 32.7337 26.5766C33.3399 26.7065 33.9007 26.9951 34.3588 27.4128C34.8169 27.8305 35.1559 28.3624 35.3411 28.9541C35.5263 29.5457 35.5511 30.1759 35.4129 30.7803C35.2747 31.3847 34.9785 31.9415 34.5545 32.3939C34.1306 32.8462 33.5941 33.1779 33 33.355Z" fill="#222222"/>
</g>
<g id="fill-f" clip-path="url(#clip1_884_18667)">
<path d="M32 86C26.477 86 22 81.523 22 76C22 70.477 26.477 66 32 66C37.523 66 42 70.477 42 76C42 81.523 37.523 86 32 86ZM31 79V81H33V79H31ZM33 77.355C33.8037 77.1128 34.4936 76.59 34.9442 75.8817C35.3947 75.1735 35.5759 74.3271 35.4547 73.4965C35.3336 72.6659 34.9181 71.9064 34.284 71.3565C33.6499 70.8065 32.8394 70.5025 32 70.5C31.1909 70.4999 30.4067 70.7802 29.7808 71.293C29.1549 71.8058 28.726 72.5196 28.567 73.313L30.529 73.706C30.5847 73.4274 30.7183 73.1704 30.9144 72.9648C31.1104 72.7592 31.3608 72.6135 31.6364 72.5447C31.912 72.4759 32.2015 72.4867 32.4712 72.576C32.7409 72.6652 32.9797 72.8292 33.1598 73.0489C33.34 73.2686 33.454 73.5349 33.4887 73.8168C33.5234 74.0988 33.4773 74.3848 33.3558 74.6416C33.2343 74.8984 33.0423 75.1154 32.8023 75.2673C32.5623 75.4193 32.2841 75.5 32 75.5C31.7348 75.5 31.4804 75.6054 31.2929 75.7929C31.1054 75.9804 31 76.2348 31 76.5V78H33V77.355Z" fill="#222222"/>
</g>
</svg>
