<svg width="100" height="108" viewBox="0 0 100 108" fill="none" xmlns="http://www.w3.org/2000/svg">
<g id="double-right" clip-path="url(#clip0_884_18596)">
<path d="M24.583 37.3212C23.553 36.2272 23 35.0002 23 33.0112C23 29.5112 25.457 26.3742 29.03 24.8232L29.923 26.2012C26.588 28.0052 25.936 30.3462 25.676 31.8222C26.213 31.5442 26.916 31.4472 27.605 31.5112C29.409 31.6782 30.831 33.1592 30.831 35.0002C30.831 35.9285 30.4623 36.8187 29.8059 37.4751C29.1495 38.1315 28.2593 38.5002 27.331 38.5002C26.258 38.5002 25.232 38.0102 24.583 37.3212ZM34.583 37.3212C33.553 36.2272 33 35.0002 33 33.0112C33 29.5112 35.457 26.3742 39.03 24.8232L39.923 26.2012C36.588 28.0052 35.936 30.3462 35.676 31.8222C36.213 31.5442 36.916 31.4472 37.605 31.5112C39.409 31.6782 40.831 33.1592 40.831 35.0002C40.831 35.9285 40.4623 36.8187 39.8059 37.4751C39.1495 38.1315 38.2593 38.5002 37.331 38.5002C36.258 38.5002 35.232 38.0102 34.583 37.3212Z" fill="#222222"/>
</g>
<g id="single-right" clip-path="url(#clip1_884_18596)">
<path d="M67.583 37.3212C66.553 36.2272 66 35.0002 66 33.0112C66 29.5112 68.457 26.3742 72.03 24.8232L72.923 26.2012C69.588 28.0052 68.936 30.3462 68.676 31.8222C69.213 31.5442 69.916 31.4472 70.605 31.5112C72.409 31.6782 73.831 33.1592 73.831 35.0002C73.831 35.9285 73.4623 36.8187 72.8059 37.4751C72.1495 38.1315 71.2593 38.5002 70.331 38.5002C69.258 38.5002 68.232 38.0102 67.583 37.3212Z" fill="#222222"/>
</g>
<g id="single-left" clip-path="url(#clip2_884_18596)">
<path d="M73.6334 70.7984C74.3452 72.1217 74.5617 73.45 74.0469 75.3713C73.1411 78.752 69.9559 81.1462 66.1032 81.7196L65.5973 80.1574C69.2856 79.2781 70.5212 77.1856 71.1544 75.8272C70.5637 75.9567 69.8596 75.8684 69.2106 75.6283C67.5113 75.0001 66.5211 73.2015 66.9976 71.4232C67.2378 70.5266 67.8244 69.7621 68.6283 69.298C69.4322 68.8339 70.3876 68.7081 71.2842 68.9484C72.3206 69.2261 73.1848 69.9649 73.6334 70.7984Z" fill="#222222"/>
</g>
<g id="double-left" clip-path="url(#clip3_884_18596)">
<path d="M39.2481 70.002C40.2781 71.096 40.8311 72.323 40.8311 74.312C40.8311 77.812 38.3741 80.949 34.8011 82.5L33.9081 81.122C37.2431 79.318 37.8951 76.977 38.1551 75.501C37.6181 75.779 36.9151 75.876 36.2261 75.812C34.4221 75.645 33.0001 74.164 33.0001 72.323C33.0001 71.3947 33.3688 70.5045 34.0252 69.8481C34.6816 69.1917 35.5718 68.823 36.5001 68.823C37.5731 68.823 38.5991 69.313 39.2481 70.002ZM29.2481 70.002C30.2781 71.096 30.8311 72.323 30.8311 74.312C30.8311 77.812 28.3741 80.949 24.8011 82.5L23.9081 81.122C27.2431 79.318 27.8951 76.977 28.1551 75.501C27.6181 75.779 26.9151 75.876 26.2261 75.812C24.4221 75.645 23.0001 74.164 23.0001 72.323C23.0001 71.3947 23.3688 70.5045 24.0252 69.8481C24.6816 69.1917 25.5718 68.823 26.5001 68.823C27.5731 68.823 28.5991 69.313 29.2481 70.002Z" fill="#222222"/>
</g>
</svg>
