<svg width="64" height="108" viewBox="0 0 64 108" fill="none" xmlns="http://www.w3.org/2000/svg">
<g id="fill-t" clip-path="url(#clip0_884_18400)">
<path d="M32 42C26.477 42 22 37.523 22 32C22 26.477 26.477 22 32 22C37.523 22 42 26.477 42 32C42 37.523 37.523 42 32 42ZM32 40C34.1217 40 36.1566 39.1571 37.6569 37.6569C39.1571 36.1566 40 34.1217 40 32C40 29.8783 39.1571 27.8434 37.6569 26.3431C36.1566 24.8429 34.1217 24 32 24C29.8783 24 27.8434 24.8429 26.3431 26.3431C24.8429 27.8434 24 29.8783 24 32C24 34.1217 24.8429 36.1566 26.3431 37.6569C27.8434 39.1571 29.8783 40 32 40Z" fill="#222222"/>
</g>
<g id="fill-f" clip-path="url(#clip1_884_18400)">
<path d="M32 82C26.477 82 22 77.523 22 72C22 66.477 26.477 62 32 62C37.523 62 42 66.477 42 72C42 77.523 37.523 82 32 82ZM32 76C33.0609 76 34.0783 75.5786 34.8284 74.8284C35.5786 74.0783 36 73.0609 36 72C36 70.9391 35.5786 69.9217 34.8284 69.1716C34.0783 68.4214 33.0609 68 32 68C30.9391 68 29.9217 68.4214 29.1716 69.1716C28.4214 69.9217 28 70.9391 28 72C28 73.0609 28.4214 74.0783 29.1716 74.8284C29.9217 75.5786 30.9391 76 32 76Z" fill="#222222"/>
</g>
</svg>
