<svg width="64" height="108" viewBox="0 0 64 108" fill="none" xmlns="http://www.w3.org/2000/svg">
<g id="fill-t" clip-path="url(#clip0_884_18646)">
<path d="M35.502 40.0001C34.8404 41.5824 33.5823 42.8405 32 43.5021C30.4177 42.8405 29.1596 41.5824 28.498 40.0001H30.758C31.084 40.4891 31.505 40.9121 32 41.2431C32.495 40.9131 32.916 40.4891 33.243 40.0001H35.502ZM38 34.8051L40 37.0731V39.0001H24V37.0731L26 34.8051V29.0001C26 25.5171 28.504 22.5531 32 21.4551C35.496 22.5531 38 25.5171 38 29.0001V34.8051ZM37.27 37.0001L36 35.5601V29.0001C36 26.6821 34.43 24.5701 32 23.5801C29.57 24.5701 28 26.6811 28 29.0001V35.5601L26.73 37.0001H37.27ZM32 31.0001C31.4696 31.0001 30.9609 30.7894 30.5858 30.4143C30.2107 30.0392 30 29.5305 30 29.0001C30 28.4696 30.2107 27.9609 30.5858 27.5859C30.9609 27.2108 31.4696 27.0001 32 27.0001C32.5304 27.0001 33.0391 27.2108 33.4142 27.5859C33.7893 27.9609 34 28.4696 34 29.0001C34 29.5305 33.7893 30.0392 33.4142 30.4143C33.0391 30.7894 32.5304 31.0001 32 31.0001Z" fill="#222222"/>
</g>
<g id="fill-f" clip-path="url(#clip1_884_18646)">
<path d="M28.498 84.0001H35.502C34.8404 85.5824 33.5823 86.8405 32 87.5021C30.4177 86.8405 29.1596 85.5824 28.498 84.0001ZM38 78.8051L40 81.0731V83.0001H24V81.0731L26 78.8051V73.0001C26 69.5171 28.504 66.5531 32 65.4551C35.496 66.5531 38 69.5171 38 73.0001V78.8051ZM32 75.0001C32.5304 75.0001 33.0391 74.7894 33.4142 74.4143C33.7893 74.0392 34 73.5305 34 73.0001C34 72.4696 33.7893 71.9609 33.4142 71.5859C33.0391 71.2108 32.5304 71.0001 32 71.0001C31.4696 71.0001 30.9609 71.2108 30.5858 71.5859C30.2107 71.9609 30 72.4696 30 73.0001C30 73.5305 30.2107 74.0392 30.5858 74.4143C30.9609 74.7894 31.4696 75.0001 32 75.0001Z" fill="#222222"/>
</g>
</svg>
