<svg width="64" height="108" viewBox="0 0 64 108" fill="none" xmlns="http://www.w3.org/2000/svg">
<g id="fill-t" clip-path="url(#clip0_884_18463)">
<path d="M38 85V77H26V85H24C23.7348 85 23.4804 84.8946 23.2929 84.7071C23.1054 84.5196 23 84.2652 23 84V68C23 67.7348 23.1054 67.4804 23.2929 67.2929C23.4804 67.1054 23.7348 67 24 67H37L41 71V84C41 84.2652 40.8946 84.5196 40.7071 84.7071C40.5196 84.8946 40.2652 85 40 85H38ZM36 85H28V79H36V85Z" fill="#222222"/>
</g>
<g id="fill-f" clip-path="url(#clip1_884_18463)">
<path d="M27 39V33H37V39H39V27.828L36.172 25H25V39H27ZM24 23H37L41 27V40C41 40.2652 40.8946 40.5196 40.7071 40.7071C40.5196 40.8946 40.2652 41 40 41H24C23.7348 41 23.4804 40.8946 23.2929 40.7071C23.1054 40.5196 23 40.2652 23 40V24C23 23.7348 23.1054 23.4804 23.2929 23.2929C23.4804 23.1054 23.7348 23 24 23ZM29 35V39H35V35H29Z" fill="#222222"/>
</g>
</svg>
