<svg width="64" height="108" viewBox="0 0 64 108" fill="none" xmlns="http://www.w3.org/2000/svg">
<g id="fill-t" clip-path="url(#clip0_884_18540)">
<path d="M33.1202 37.0227L28.9212 34.7327C28.373 35.3188 27.6612 35.7264 26.8783 35.9026C26.0954 36.0788 25.2776 36.0154 24.5311 35.7208C23.7847 35.4261 23.1442 34.9137 22.6928 34.2502C22.2414 33.5867 22 32.8027 22 32.0002C22 31.1977 22.2414 30.4138 22.6928 29.7503C23.1442 29.0868 23.7847 28.5744 24.5311 28.2797C25.2776 27.985 26.0954 27.9216 26.8783 28.0978C27.6612 28.274 28.373 28.6817 28.9212 29.2677L33.1212 26.9777C32.8828 26.0338 32.9968 25.0353 33.4418 24.1694C33.8869 23.3035 34.6325 22.6297 35.5389 22.2742C36.4452 21.9187 37.4501 21.906 38.3652 22.2384C39.2803 22.5709 40.0427 23.2256 40.5095 24.08C40.9764 24.9343 41.1156 25.9296 40.9011 26.8793C40.6866 27.8289 40.1332 28.6678 39.3444 29.2385C38.5557 29.8093 37.5859 30.0728 36.6168 29.9797C35.6477 29.8866 34.7458 29.4432 34.0802 28.7327L29.8802 31.0227C30.0414 31.6641 30.0414 32.3354 29.8802 32.9767L34.0792 35.2667C34.7448 34.5562 35.6467 34.1128 36.6158 34.0197C37.5849 33.9266 38.5547 34.1901 39.3434 34.7609C40.1322 35.3317 40.6856 36.1705 40.9001 37.1202C41.1146 38.0698 40.9754 39.0651 40.5085 39.9195C40.0417 40.7738 39.2793 41.4286 38.3642 41.761C37.4491 42.0934 36.4442 42.0807 35.5379 41.7252C34.6315 41.3697 33.8859 40.6959 33.4408 39.83C32.9958 38.9641 32.8818 37.9656 33.1202 37.0217V37.0227ZM26.0002 33.9997C26.5306 33.9997 27.0393 33.789 27.4144 33.4139C27.7895 33.0389 28.0002 32.5301 28.0002 31.9997C28.0002 31.4693 27.7895 30.9606 27.4144 30.5855C27.0393 30.2104 26.5306 29.9997 26.0002 29.9997C25.4698 29.9997 24.9611 30.2104 24.586 30.5855C24.2109 30.9606 24.0002 31.4693 24.0002 31.9997C24.0002 32.5301 24.2109 33.0389 24.586 33.4139C24.9611 33.789 25.4698 33.9997 26.0002 33.9997ZM37.0002 27.9997C37.5306 27.9997 38.0393 27.789 38.4144 27.4139C38.7895 27.0389 39.0002 26.5301 39.0002 25.9997C39.0002 25.4693 38.7895 24.9606 38.4144 24.5855C38.0393 24.2104 37.5306 23.9997 37.0002 23.9997C36.4698 23.9997 35.9611 24.2104 35.586 24.5855C35.2109 24.9606 35.0002 25.4693 35.0002 25.9997C35.0002 26.5301 35.2109 27.0389 35.586 27.4139C35.9611 27.789 36.4698 27.9997 37.0002 27.9997ZM37.0002 39.9997C37.5306 39.9997 38.0393 39.789 38.4144 39.4139C38.7895 39.0389 39.0002 38.5301 39.0002 37.9997C39.0002 37.4693 38.7895 36.9606 38.4144 36.5855C38.0393 36.2104 37.5306 35.9997 37.0002 35.9997C36.4698 35.9997 35.9611 36.2104 35.586 36.5855C35.2109 36.9606 35.0002 37.4693 35.0002 37.9997C35.0002 38.5301 35.2109 39.0389 35.586 39.4139C35.9611 39.789 36.4698 39.9997 37.0002 39.9997Z" fill="#222222"/>
</g>
<g id="fill-f" clip-path="url(#clip1_884_18540)">
<path d="M33.5762 81.2706L28.4662 78.4836C27.9757 78.9705 27.352 79.3013 26.6738 79.4342C25.9956 79.5672 25.2932 79.4964 24.6551 79.2307C24.0171 78.9651 23.472 78.5164 23.0885 77.9414C22.7051 77.3664 22.5005 76.6908 22.5005 75.9996C22.5005 75.3085 22.7051 74.6328 23.0885 74.0578C23.472 73.4828 24.0171 73.0342 24.6551 72.7685C25.2932 72.5029 25.9956 72.432 26.6738 72.565C27.352 72.6979 27.9757 73.0287 28.4662 73.5156L33.5762 70.7286C33.4009 69.9064 33.5275 69.0485 33.9328 68.3119C34.3381 67.5753 34.9949 67.0092 35.7833 66.7171C36.5717 66.425 37.4388 66.4264 38.2262 66.7211C39.0136 67.0158 39.6686 67.5841 40.0714 68.3221C40.4742 69.06 40.598 69.9183 40.42 70.74C40.242 71.5617 39.7742 72.2918 39.1021 72.7969C38.43 73.302 37.5986 73.5483 36.7598 73.4908C35.9211 73.4333 35.131 73.0758 34.5342 72.4836L29.4242 75.2706C29.5261 75.7513 29.5261 76.248 29.4242 76.7286L34.5342 79.5156C35.131 78.9235 35.9211 78.566 36.7598 78.5084C37.5986 78.4509 38.43 78.6972 39.1021 79.2023C39.7742 79.7074 40.242 80.4376 40.42 81.2593C40.598 82.0809 40.4742 82.9392 40.0714 83.6772C39.6686 84.4151 39.0136 84.9834 38.2262 85.2781C37.4388 85.5728 36.5717 85.5743 35.7833 85.2822C34.9949 84.9901 34.3381 84.424 33.9328 83.6874C33.5275 82.9508 33.4009 82.0929 33.5762 81.2706Z" fill="#222222"/>
</g>
</svg>
