<svg width="64" height="108" viewBox="0 0 64 108" fill="none" xmlns="http://www.w3.org/2000/svg">
<g id="fill-t" clip-path="url(#clip0_884_18526)">
<path d="M27 28V26C27 24.6739 27.5268 23.4021 28.4645 22.4645C29.4021 21.5268 30.6739 21 32 21C33.3261 21 34.5979 21.5268 35.5355 22.4645C36.4732 23.4021 37 24.6739 37 26V28H40C40.2652 28 40.5196 28.1054 40.7071 28.2929C40.8946 28.4804 41 28.7348 41 29V41C41 41.2652 40.8946 41.5196 40.7071 41.7071C40.5196 41.8946 40.2652 42 40 42H24C23.7348 42 23.4804 41.8946 23.2929 41.7071C23.1054 41.5196 23 41.2652 23 41V29C23 28.7348 23.1054 28.4804 23.2929 28.2929C23.4804 28.1054 23.7348 28 24 28H27ZM27 30H25V40H39V30H37V32H35V30H29V32H27V30ZM29 28H35V26C35 25.2044 34.6839 24.4413 34.1213 23.8787C33.5587 23.3161 32.7956 23 32 23C31.2044 23 30.4413 23.3161 29.8787 23.8787C29.3161 24.4413 29 25.2044 29 26V28Z" fill="#222222"/>
</g>
<g id="fill-f" clip-path="url(#clip1_884_18526)">
<path d="M32 65C32.6566 65 33.3068 65.1293 33.9134 65.3806C34.52 65.6319 35.0712 66.0002 35.5355 66.4645C35.9998 66.9288 36.3681 67.48 36.6194 68.0866C36.8707 68.6932 37 69.3434 37 70V72H40C40.2652 72 40.5196 72.1054 40.7071 72.2929C40.8946 72.4804 41 72.7348 41 73V85C41 85.2652 40.8946 85.5196 40.7071 85.7071C40.5196 85.8946 40.2652 86 40 86H24C23.7348 86 23.4804 85.8946 23.2929 85.7071C23.1054 85.5196 23 85.2652 23 85V73C23 72.7348 23.1054 72.4804 23.2929 72.2929C23.4804 72.1054 23.7348 72 24 72H27V70C27 68.6739 27.5268 67.4021 28.4645 66.4645C29.4021 65.5268 30.6739 65 32 65ZM37 75H35V76C35.0003 76.2549 35.0979 76.5 35.2728 76.6854C35.4478 76.8707 35.687 76.9822 35.9414 76.9972C36.1958 77.0121 36.4464 76.9293 36.6418 76.7657C36.8373 76.6021 36.9629 76.3701 36.993 76.117L37 76V75ZM29 75H27V76C27.0003 76.2549 27.0979 76.5 27.2728 76.6854C27.4478 76.8707 27.687 76.9822 27.9414 76.9972C28.1958 77.0121 28.4464 76.9293 28.6418 76.7657C28.8373 76.6021 28.9629 76.3701 28.993 76.117L29 76V75ZM32 67C31.2348 67 30.4985 67.2923 29.9417 67.8173C29.385 68.3422 29.0499 69.0601 29.005 69.824L29 70V72H35V70C35 69.2348 34.7077 68.4985 34.1827 67.9417C33.6578 67.385 32.9399 67.0499 32.176 67.005L32 67Z" fill="#222222"/>
</g>
</svg>
