<svg width="64" height="108" viewBox="0 0 64 108" fill="none" xmlns="http://www.w3.org/2000/svg">
<g id="fill-t" clip-path="url(#clip0_884_18716)">
<path d="M31.9999 38.26L24.9469 42.208L26.5219 34.28L20.5869 28.792L28.6139 27.84L31.9999 20.5L35.3859 27.84L43.4129 28.792L37.4779 34.28L39.0529 42.208L31.9999 38.26ZM31.9999 35.968L36.2469 38.345L35.2979 33.572L38.8709 30.267L34.0379 29.694L31.9999 25.275L29.9619 29.695L25.1289 30.267L28.7019 33.572L27.7529 38.345L31.9999 35.968Z" fill="#222222"/>
</g>
<g id="fill-f" clip-path="url(#clip1_884_18716)">
<path d="M31.9999 82.26L24.9469 86.208L26.5219 78.28L20.5869 72.792L28.6139 71.84L31.9999 64.5L35.3859 71.84L43.4129 72.792L37.4779 78.28L39.0529 86.208L31.9999 82.26Z" fill="#222222"/>
</g>
</svg>
