<svg width="64" height="108" viewBox="0 0 64 108" fill="none" xmlns="http://www.w3.org/2000/svg">
<g id="fill-t" clip-path="url(#clip0_884_18554)">
<path d="M23 27.0003L31.445 21.3703C31.6093 21.2607 31.8025 21.2021 32 21.2021C32.1975 21.2021 32.3907 21.2607 32.555 21.3703L41 27.0003V41.0003C41 41.2655 40.8946 41.5199 40.7071 41.7074C40.5196 41.8949 40.2652 42.0003 40 42.0003H24C23.7348 42.0003 23.4804 41.8949 23.2929 41.7074C23.1054 41.5199 23 41.2655 23 41.0003V27.0003ZM25 28.0703V40.0003H39V28.0703L32 23.4043L25 28.0703ZM32 31.0003C31.4696 31.0003 30.9609 30.7896 30.5858 30.4145C30.2107 30.0394 30 29.5307 30 29.0003C30 28.4699 30.2107 27.9612 30.5858 27.5861C30.9609 27.211 31.4696 27.0003 32 27.0003C32.5304 27.0003 33.0391 27.211 33.4142 27.5861C33.7893 27.9612 34 28.4699 34 29.0003C34 29.5307 33.7893 30.0394 33.4142 30.4145C33.0391 30.7896 32.5304 31.0003 32 31.0003Z" fill="#222222"/>
</g>
<g id="fill-f" clip-path="url(#clip1_884_18554)">
<path d="M23 71.0003L31.445 65.3703C31.6093 65.2607 31.8025 65.2021 32 65.2021C32.1975 65.2021 32.3907 65.2607 32.555 65.3703L41 71.0003V85.0003C41 85.2655 40.8946 85.5199 40.7071 85.7074C40.5196 85.8949 40.2652 86.0003 40 86.0003H24C23.7348 86.0003 23.4804 85.8949 23.2929 85.7074C23.1054 85.5199 23 85.2655 23 85.0003V71.0003ZM32 75.0003C32.5304 75.0003 33.0391 74.7896 33.4142 74.4145C33.7893 74.0394 34 73.5307 34 73.0003C34 72.4699 33.7893 71.9612 33.4142 71.5861C33.0391 71.211 32.5304 71.0003 32 71.0003C31.4696 71.0003 30.9609 71.211 30.5858 71.5861C30.2107 71.9612 30 72.4699 30 73.0003C30 73.5307 30.2107 74.0394 30.5858 74.4145C30.9609 74.7896 31.4696 75.0003 32 75.0003Z" fill="#222222"/>
</g>
</svg>
