<svg width="64" height="108" viewBox="0 0 64 108" fill="none" xmlns="http://www.w3.org/2000/svg">
<g id="fill-t" clip-path="url(#clip0_884_18760)">
<path d="M22 24C22 23.7348 22.1054 23.4804 22.2929 23.2929C22.4804 23.1054 22.7348 23 23 23H41C41.2652 23 41.5196 23.1054 41.7071 23.2929C41.8946 23.4804 42 23.7348 42 24V29.5C41.337 29.5 40.7011 29.7634 40.2322 30.2322C39.7634 30.7011 39.5 31.337 39.5 32C39.5 32.663 39.7634 33.2989 40.2322 33.7678C40.7011 34.2366 41.337 34.5 42 34.5V40C42 40.2652 41.8946 40.5196 41.7071 40.7071C41.5196 40.8946 41.2652 41 41 41H23C22.7348 41 22.4804 40.8946 22.2929 40.7071C22.1054 40.5196 22 40.2652 22 40V24ZM28.085 39C28.1881 38.707 28.3796 38.4532 28.633 38.2737C28.8865 38.0942 29.1894 37.9978 29.5 37.9978C29.8106 37.9978 30.1135 38.0942 30.367 38.2737C30.6204 38.4532 30.8119 38.707 30.915 39H40V36.032C39.2488 35.6597 38.6165 35.085 38.1745 34.3725C37.7325 33.6601 37.4982 32.8384 37.4982 32C37.4982 31.1616 37.7325 30.3399 38.1745 29.6275C38.6165 28.9151 39.2488 28.3403 40 27.968V25H30.915C30.8119 25.293 30.6204 25.5468 30.367 25.7263C30.1135 25.9058 29.8106 26.0022 29.5 26.0022C29.1894 26.0022 28.8865 25.9058 28.633 25.7263C28.3796 25.5468 28.1881 25.293 28.085 25H24V39H28.085ZM29.5 31C29.1022 31 28.7206 30.842 28.4393 30.5607C28.158 30.2794 28 29.8978 28 29.5C28 29.1022 28.158 28.7206 28.4393 28.4393C28.7206 28.158 29.1022 28 29.5 28C29.8978 28 30.2794 28.158 30.5607 28.4393C30.842 28.7206 31 29.1022 31 29.5C31 29.8978 30.842 30.2794 30.5607 30.5607C30.2794 30.842 29.8978 31 29.5 31ZM29.5 36C29.1022 36 28.7206 35.842 28.4393 35.5607C28.158 35.2794 28 34.8978 28 34.5C28 34.1022 28.158 33.7206 28.4393 33.4393C28.7206 33.158 29.1022 33 29.5 33C29.8978 33 30.2794 33.158 30.5607 33.4393C30.842 33.7206 31 34.1022 31 34.5C31 34.8978 30.842 35.2794 30.5607 35.5607C30.2794 35.842 29.8978 36 29.5 36Z" fill="#222222"/>
</g>
<g id="fill-f" clip-path="url(#clip1_884_18760)">
<path d="M31 85C31 84.6022 30.842 84.2206 30.5607 83.9393C30.2794 83.658 29.8978 83.5 29.5 83.5C29.1022 83.5 28.7206 83.658 28.4393 83.9393C28.158 84.2206 28 84.6022 28 85H23C22.7348 85 22.4804 84.8946 22.2929 84.7071C22.1054 84.5196 22 84.2652 22 84V68C22 67.7348 22.1054 67.4804 22.2929 67.2929C22.4804 67.1054 22.7348 67 23 67H28C28 67.3978 28.158 67.7794 28.4393 68.0607C28.7206 68.342 29.1022 68.5 29.5 68.5C29.8978 68.5 30.2794 68.342 30.5607 68.0607C30.842 67.7794 31 67.3978 31 67H41C41.2652 67 41.5196 67.1054 41.7071 67.2929C41.8946 67.4804 42 67.7348 42 68V73.5C41.337 73.5 40.7011 73.7634 40.2322 74.2322C39.7634 74.7011 39.5 75.337 39.5 76C39.5 76.663 39.7634 77.2989 40.2322 77.7678C40.7011 78.2366 41.337 78.5 42 78.5V84C42 84.2652 41.8946 84.5196 41.7071 84.7071C41.5196 84.8946 41.2652 85 41 85H31ZM29.5 74.5C29.8978 74.5 30.2794 74.342 30.5607 74.0607C30.842 73.7794 31 73.3978 31 73C31 72.6022 30.842 72.2206 30.5607 71.9393C30.2794 71.658 29.8978 71.5 29.5 71.5C29.1022 71.5 28.7206 71.658 28.4393 71.9393C28.158 72.2206 28 72.6022 28 73C28 73.3978 28.158 73.7794 28.4393 74.0607C28.7206 74.342 29.1022 74.5 29.5 74.5ZM29.5 80.5C29.8978 80.5 30.2794 80.342 30.5607 80.0607C30.842 79.7794 31 79.3978 31 79C31 78.6022 30.842 78.2206 30.5607 77.9393C30.2794 77.658 29.8978 77.5 29.5 77.5C29.1022 77.5 28.7206 77.658 28.4393 77.9393C28.158 78.2206 28 78.6022 28 79C28 79.3978 28.158 79.7794 28.4393 80.0607C28.7206 80.342 29.1022 80.5 29.5 80.5Z" fill="#222222"/>
</g>
</svg>
