<svg width="64" height="108" viewBox="0 0 64 108" fill="none" xmlns="http://www.w3.org/2000/svg">
<g id="fill-t" clip-path="url(#clip0_884_18802)">
<path d="M25.33 23.271C25.9971 23.0329 26.7206 23.0029 27.4051 23.1848C28.0896 23.3666 28.7028 23.7519 29.1637 24.2896C29.6246 24.8273 29.9115 25.4922 29.9866 26.1965C30.0616 26.9007 29.9213 27.6112 29.584 28.234L40.293 38.944L38.879 40.358L28.169 29.648C27.5461 29.9839 26.836 30.1231 26.1324 30.0475C25.4287 29.9718 24.7645 29.6847 24.2272 29.224C23.69 28.7633 23.3049 28.1506 23.1228 27.4667C22.9407 26.7828 22.9701 26.0598 23.207 25.393L25.444 27.63C25.5824 27.7732 25.7479 27.8875 25.9309 27.9661C26.1139 28.0447 26.3108 28.0861 26.5099 28.0878C26.7091 28.0896 26.9066 28.0516 27.091 27.9762C27.2753 27.9008 27.4428 27.7894 27.5836 27.6485C27.7245 27.5077 27.8358 27.3402 27.9113 27.1559C27.9867 26.9715 28.0246 26.774 28.0229 26.5749C28.0212 26.3757 27.9798 26.1789 27.9012 25.9958C27.8226 25.8128 27.7083 25.6473 27.565 25.509L25.329 23.27L25.33 23.271ZM35.697 25.155L38.879 23.387L40.293 24.801L38.525 27.983L36.757 28.337L34.637 30.458L33.222 29.044L35.343 26.923L35.697 25.155ZM28.979 33.287L30.393 34.701L25.09 40.004C24.9097 40.1848 24.6671 40.2898 24.4119 40.2974C24.1566 40.305 23.9081 40.2148 23.7173 40.0451C23.5265 39.8754 23.4079 39.6391 23.3857 39.3847C23.3635 39.1304 23.4395 38.8771 23.598 38.677L23.676 38.59L28.979 33.287Z" fill="#222222"/>
</g>
<g id="fill-f" clip-path="url(#clip1_884_18802)">
<path d="M25.3299 67.2709C25.954 67.0482 26.6284 67.0073 27.2748 67.1529C27.9212 67.2984 28.513 67.6245 28.9814 68.0931C29.4498 68.5617 29.7755 69.1536 29.9208 69.8001C30.066 70.4465 30.0248 71.1209 29.8019 71.7449L40.6469 82.5899L38.5249 84.7109L27.6799 73.8669C27.0559 74.0895 26.3815 74.1304 25.7351 73.9849C25.0887 73.8393 24.4969 73.5133 24.0285 73.0447C23.5601 72.5761 23.2343 71.9841 23.0891 71.3377C22.9438 70.6912 22.985 70.0168 23.2079 69.3929L25.4439 71.6299C25.5823 71.7731 25.7478 71.8874 25.9308 71.966C26.1138 72.0446 26.3107 72.086 26.5098 72.0877C26.709 72.0895 26.9065 72.0515 27.0909 71.9761C27.2752 71.9007 27.4427 71.7893 27.5835 71.6485C27.7244 71.5076 27.8357 71.3401 27.9112 71.1558C27.9866 70.9715 28.0245 70.7739 28.0228 70.5748C28.0211 70.3756 27.9797 70.1788 27.9011 69.9958C27.8225 69.8128 27.7082 69.6472 27.5649 69.5089L25.3289 67.2699L25.3299 67.2709ZM35.6969 69.1549L38.8789 67.3869L40.2929 68.8009L38.5249 71.9829L36.7569 72.3369L34.6369 74.4579L33.2219 73.0439L35.3429 70.9229L35.6969 69.1549ZM28.6259 76.9329L30.7469 79.0549L25.7969 84.0049C25.524 84.2753 25.1576 84.4306 24.7735 84.4389C24.3894 84.4471 24.0167 84.3077 23.7324 84.0493C23.448 83.7908 23.2737 83.4332 23.2454 83.05C23.217 82.6668 23.3367 82.2873 23.5799 81.9899L23.6769 81.8829L28.6269 76.9329H28.6259Z" fill="#222222"/>
</g>
</svg>
