<svg width="64" height="108" viewBox="0 0 64 108" fill="none" xmlns="http://www.w3.org/2000/svg">
<g id="fill-t" clip-path="url(#clip0_884_18512)">
<path d="M28.965 38C28.8461 38.8343 28.4302 39.5977 27.7937 40.1499C27.1571 40.7022 26.3427 41.0063 25.5 41.0063C24.6573 41.0063 23.8429 40.7022 23.2063 40.1499C22.5698 39.5977 22.1539 38.8343 22.035 38H21V26C21 25.7348 21.1054 25.4804 21.2929 25.2929C21.4804 25.1054 21.7348 25 22 25H36C36.2652 25 36.5196 25.1054 36.7071 25.2929C36.8946 25.4804 37 25.7348 37 26V28H40L43 32.056V38H40.965C40.8461 38.8343 40.4302 39.5977 39.7937 40.1499C39.1571 40.7022 38.3427 41.0063 37.5 41.0063C36.6573 41.0063 35.8429 40.7022 35.2063 40.1499C34.5698 39.5977 34.1539 38.8343 34.035 38H28.965ZM35 27H23V35.05C23.3946 34.6472 23.8806 34.3457 24.4168 34.1711C24.9529 33.9966 25.5233 33.9541 26.0794 34.0474C26.6355 34.1407 27.1608 34.3669 27.6106 34.7069C28.0604 35.0469 28.4215 35.4905 28.663 36H34.337C34.505 35.647 34.73 35.326 35 35.05V27ZM37 33H41V32.715L38.992 30H37V33ZM37.5 39C37.898 39 38.2796 38.8419 38.561 38.5605C38.8424 38.2791 39.0005 37.8975 39.0005 37.4995C39.0005 37.1015 38.8424 36.7199 38.561 36.4385C38.2796 36.1571 37.898 35.999 37.5 35.999C37.102 35.999 36.7204 36.1571 36.439 36.4385C36.1576 36.7199 35.9995 37.1015 35.9995 37.4995C35.9995 37.8975 36.1576 38.2791 36.439 38.5605C36.7204 38.8419 37.102 39 37.5 39ZM27 37.5C27 37.303 26.9612 37.108 26.8858 36.926C26.8104 36.744 26.6999 36.5786 26.5607 36.4393C26.4214 36.3001 26.256 36.1896 26.074 36.1142C25.892 36.0388 25.697 36 25.5 36C25.303 36 25.108 36.0388 24.926 36.1142C24.744 36.1896 24.5786 36.3001 24.4393 36.4393C24.3001 36.5786 24.1896 36.744 24.1142 36.926C24.0388 37.108 24 37.303 24 37.5C24 37.8978 24.158 38.2794 24.4393 38.5607C24.7206 38.842 25.1022 39 25.5 39C25.8978 39 26.2794 38.842 26.5607 38.5607C26.842 38.2794 27 37.8978 27 37.5Z" fill="#222222"/>
</g>
<g id="fill-f" clip-path="url(#clip1_884_18512)">
<path d="M37 72H40L43 76.056V82H40.965C40.8461 82.8343 40.4302 83.5977 39.7937 84.1499C39.1571 84.7022 38.3427 85.0063 37.5 85.0063C36.6573 85.0063 35.8429 84.7022 35.2063 84.1499C34.5698 83.5977 34.1539 82.8343 34.035 82H28.965C28.8461 82.8343 28.4302 83.5977 27.7937 84.1499C27.1571 84.7022 26.3427 85.0063 25.5 85.0063C24.6573 85.0063 23.8429 84.7022 23.2063 84.1499C22.5698 83.5977 22.1539 82.8343 22.035 82H21V70C21 69.7348 21.1054 69.4804 21.2929 69.2929C21.4804 69.1054 21.7348 69 22 69H36C36.2652 69 36.5196 69.1054 36.7071 69.2929C36.8946 69.4804 37 69.7348 37 70V72ZM37 74V77H41V76.715L38.992 74H37Z" fill="#222222"/>
</g>
</svg>
