<svg width="40" height="40" viewBox="0 0 40 40" fill="none" xmlns="http://www.w3.org/2000/svg">
<g clip-path="url(#clip0_894_99)">
<path d="M39.4887 12.2986L27.7019 0.511625C27.2206 0.0302194 26.503 -0.126812 25.8642 0.109204C25.2256 0.345375 24.7828 0.931781 24.7307 1.61069L23.7979 13.7368L17.7893 19.7454L16.0754 18.0314C15.3946 17.3506 14.2906 17.3506 13.6097 18.0314C12.9289 18.7122 12.9289 19.8161 13.6097 20.497L15.3236 22.2108L11.8959 25.6386L10.1821 23.9248C9.50147 23.2438 8.39748 23.244 7.71647 23.9248C7.03561 24.6056 7.03561 25.7094 7.71647 26.3904L9.43029 28.1044L3.21624 34.3185L2.97578 34.078C2.295 33.3972 1.19101 33.3972 0.510155 34.078C-0.170703 34.7588 -0.170703 35.8628 0.510155 36.5436L1.98351 38.017L3.45687 39.4903C3.79734 39.8307 4.24351 40.0009 4.6896 40.0009C5.13585 40.0009 5.58202 39.8306 5.92233 39.4903C6.60319 38.8094 6.60319 37.7055 5.92233 37.0246L5.68186 36.7842L9.31569 33.1504C9.60834 33.9218 10.0622 34.6297 10.6632 35.2307C11.7796 36.3469 13.264 36.9618 14.8427 36.9618C16.4215 36.9618 17.9057 36.347 19.022 35.2307L24.9158 29.3372C27.2202 27.0325 27.2202 23.2825 24.9156 20.9779C24.3146 20.3772 23.6066 19.9234 22.8353 19.6307L26.2635 16.2024L38.3896 15.2697C39.0685 15.2176 39.6549 14.7748 39.8911 14.1362C40.1273 13.4976 39.9702 12.7801 39.4887 12.2986ZM22.4502 26.8715L16.5564 32.7649C16.0986 33.2227 15.49 33.4748 14.8428 33.4748C14.1954 33.4748 13.5865 33.2227 13.1288 32.7649C12.6711 32.3072 12.419 31.6986 12.419 31.0511C12.419 30.4037 12.6711 29.795 13.1288 29.3373L19.0245 23.4417C19.4821 22.9854 20.0897 22.734 20.7361 22.734C21.3836 22.734 21.9926 22.9861 22.4503 23.4436C23.395 24.3888 23.395 25.9265 22.4502 26.8715Z" fill="#222222"/>
</g>
<defs>
<clipPath id="clip0_894_99">
<rect width="40" height="40" fill="white"/>
</clipPath>
</defs>
</svg>
