<svg width="64" height="108" viewBox="0 0 64 108" fill="none" xmlns="http://www.w3.org/2000/svg">
<g id="fill-t" clip-path="url(#clip0_884_18568)">
<path d="M42.1618 69.6559C41.3984 69.9936 40.5888 70.2154 39.7598 70.3139C40.6336 69.7914 41.2875 68.9689 41.5998 67.9999C40.7798 68.4879 39.8808 68.8299 38.9438 69.0149C38.3144 68.3415 37.4802 67.8949 36.5708 67.7445C35.6614 67.5941 34.7277 67.7484 33.9151 68.1834C33.1024 68.6183 32.4562 69.3096 32.0769 70.1497C31.6976 70.9898 31.6066 71.9317 31.8178 72.8289C30.1549 72.7456 28.5281 72.3134 27.0431 71.5606C25.5581 70.8077 24.2479 69.751 23.1978 68.4589C22.8261 69.0974 22.6308 69.8232 22.6318 70.5619C22.6318 72.0119 23.3698 73.2929 24.4918 74.0429C23.8278 74.022 23.1784 73.8427 22.5978 73.5199V73.5719C22.598 74.5376 22.9322 75.4735 23.5437 76.221C24.1551 76.9684 25.0063 77.4814 25.9528 77.6729C25.3364 77.84 24.6901 77.8646 24.0628 77.7449C24.3297 78.5762 24.8498 79.3031 25.5504 79.824C26.251 80.3449 27.0969 80.6337 27.9698 80.6499C27.1023 81.3313 26.109 81.8349 25.0467 82.1321C23.9844 82.4293 22.8739 82.5142 21.7788 82.3819C23.6905 83.6114 25.9159 84.264 28.1888 84.2619C35.8818 84.2619 40.0888 77.8889 40.0888 72.3619C40.0888 72.1819 40.0838 71.9999 40.0758 71.8219C40.8947 71.2301 41.6014 70.4969 42.1628 69.6569L42.1618 69.6559Z" fill="#222222"/>
</g>
<g id="fill-f" clip-path="url(#clip1_884_18568)">
<path d="M35.3 25.5501C34.54 25.55 33.8103 25.8482 33.2679 26.3807C32.7256 26.9131 32.4139 27.6372 32.4 28.3971L32.372 29.9721C32.3704 30.0567 32.3509 30.1399 32.3148 30.2164C32.2787 30.2929 32.2269 30.3609 32.1627 30.416C32.0985 30.471 32.0233 30.5119 31.9422 30.5359C31.8611 30.5599 31.7758 30.5664 31.692 30.5551L30.131 30.3431C28.077 30.0631 26.109 29.1171 24.221 27.5441C23.623 30.8541 24.791 33.1471 27.604 34.9161L29.351 36.0141C29.434 36.0663 29.503 36.138 29.5519 36.223C29.6007 36.308 29.6281 36.4036 29.6314 36.5016C29.6348 36.5996 29.6141 36.6969 29.5711 36.785C29.5282 36.8731 29.4643 36.9494 29.385 37.0071L27.793 38.1701C28.74 38.2291 29.639 38.1871 30.385 38.0391C35.103 37.0971 38.24 33.5471 38.24 27.6911C38.24 27.2131 37.228 25.5501 35.3 25.5501ZM30.4 28.3601C30.4175 27.3962 30.7189 26.4588 31.2666 25.6653C31.8142 24.8719 32.5838 24.2576 33.4789 23.8995C34.3741 23.5413 35.3549 23.4552 36.2988 23.6519C37.2426 23.8485 38.1074 24.3193 38.785 25.0051C39.496 25.0001 40.101 25.1801 41.454 24.3601C41.119 26.0001 40.954 26.7121 40.24 27.6911C40.24 35.3331 35.543 39.0491 30.777 40.0001C27.509 40.6521 22.757 39.5811 21.395 38.1591C22.089 38.1051 24.909 37.8021 26.539 36.6091C25.16 35.7001 19.671 32.4701 23.278 23.7861C24.971 25.7631 26.688 27.1091 28.428 27.8231C29.586 28.2981 29.87 28.2881 30.401 28.3611L30.4 28.3601Z" fill="#222222"/>
</g>
</svg>
