<svg width="64" height="108" viewBox="0 0 64 108" fill="none" xmlns="http://www.w3.org/2000/svg">
<g id="fill-t" clip-path="url(#clip0_884_18470)">
<path d="M25 42C25 39.8783 25.8429 37.8434 27.3431 36.3431C28.8434 34.8429 30.8783 34 33 34C35.1217 34 37.1566 34.8429 38.6569 36.3431C40.1571 37.8434 41 39.8783 41 42H39C39 40.4087 38.3679 38.8826 37.2426 37.7574C36.1174 36.6321 34.5913 36 33 36C31.4087 36 29.8826 36.6321 28.7574 37.7574C27.6321 38.8826 27 40.4087 27 42H25ZM33 33C29.685 33 27 30.315 27 27C27 23.685 29.685 21 33 21C36.315 21 39 23.685 39 27C39 30.315 36.315 33 33 33ZM33 31C35.21 31 37 29.21 37 27C37 24.79 35.21 23 33 23C30.79 23 29 24.79 29 27C29 29.21 30.79 31 33 31Z" fill="#222222"/>
</g>
<g id="fill-f" clip-path="url(#clip1_884_18470)">
<path d="M25 83C25 80.8783 25.8429 78.8434 27.3431 77.3431C28.8434 75.8429 30.8783 75 33 75C35.1217 75 37.1566 75.8429 38.6569 77.3431C40.1571 78.8434 41 80.8783 41 83H25ZM33 74C29.685 74 27 71.315 27 68C27 64.685 29.685 62 33 62C36.315 62 39 64.685 39 68C39 71.315 36.315 74 33 74Z" fill="#222222"/>
</g>
</svg>
