<svg width="64" height="108" viewBox="0 0 64 108" fill="none" xmlns="http://www.w3.org/2000/svg">
<g id="fill-t" clip-path="url(#clip0_884_18611)">
<path d="M32 42C26.477 42 22 37.523 22 32C22 26.477 26.477 22 32 22C37.523 22 42 26.477 42 32C42 37.523 37.523 42 32 42ZM32 40C34.1217 40 36.1566 39.1571 37.6569 37.6569C39.1571 36.1566 40 34.1217 40 32C40 29.8783 39.1571 27.8434 37.6569 26.3431C36.1566 24.8429 34.1217 24 32 24C29.8783 24 27.8434 24.8429 26.3431 26.3431C24.8429 27.8434 24 29.8783 24 32C24 34.1217 24.8429 36.1566 26.3431 37.6569C27.8434 39.1571 29.8783 40 32 40ZM31 35H33V37H31V35ZM31 27H33V33H31V27Z" fill="#222222"/>
</g>
<g id="fill-f" clip-path="url(#clip1_884_18611)">
<path d="M32 86C26.477 86 22 81.523 22 76C22 70.477 26.477 66 32 66C37.523 66 42 70.477 42 76C42 81.523 37.523 86 32 86ZM31 79V81H33V79H31ZM31 71V77H33V71H31Z" fill="#222222"/>
</g>
</svg>
