<svg width="108" height="108" viewBox="0 0 108 108" fill="none" xmlns="http://www.w3.org/2000/svg">
<g id="ft-zif" clip-path="url(#clip0_884_18450)">
<path d="M38.031 36.617L42.314 40.899L40.899 42.314L36.617 38.031C35.0237 39.3082 33.042 40.0029 31 40C26.032 40 22 35.968 22 31C22 26.032 26.032 22 31 22C35.968 22 40 26.032 40 31C40.0029 33.042 39.3082 35.0237 38.031 36.617ZM36.025 35.875C37.2941 34.5699 38.0029 32.8204 38 31C38 27.132 34.867 24 31 24C27.132 24 24 27.132 24 31C24 34.867 27.132 38 31 38C32.8204 38.0029 34.5699 37.2941 35.875 36.025L36.025 35.875ZM30 30V27H32V30H35V32H32V35H30V32H27V30H30Z" fill="#222222"/>
</g>
<g id="ff-zif" clip-path="url(#clip1_884_18450)">
<path d="M82.031 36.617L86.314 40.899L84.899 42.314L80.617 38.031C79.0237 39.3082 77.042 40.0029 75 40C70.032 40 66 35.968 66 31C66 26.032 70.032 22 75 22C79.968 22 84 26.032 84 31C84.0029 33.042 83.3082 35.0237 82.031 36.617ZM74 30H71V32H74V35H76V32H79V30H76V27H74V30Z" fill="#222222"/>
</g>
<g id="ft-zit" clip-path="url(#clip2_884_18450)">
<path d="M38.031 80.617L42.314 84.899L40.899 86.314L36.617 82.031C35.0237 83.3082 33.042 84.0029 31 84C26.032 84 22 79.968 22 75C22 70.032 26.032 66 31 66C35.968 66 40 70.032 40 75C40.0029 77.042 39.3082 79.0237 38.031 80.617ZM36.025 79.875C37.2941 78.5699 38.0029 76.8204 38 75C38 71.132 34.867 68 31 68C27.132 68 24 71.132 24 75C24 78.867 27.132 82 31 82C32.8204 82.0029 34.5699 81.2941 35.875 80.025L36.025 79.875ZM27 74H35V76H27V74Z" fill="#222222"/>
</g>
<g id="ff-zit" clip-path="url(#clip3_884_18450)">
<path d="M82.031 80.617L86.314 84.899L84.899 86.314L80.617 82.031C79.0237 83.3082 77.042 84.0029 75 84C70.032 84 66 79.968 66 75C66 70.032 70.032 66 75 66C79.968 66 84 70.032 84 75C84.0029 77.042 83.3082 79.0237 82.031 80.617ZM71 74V76H79V74H71Z" fill="#222222"/>
</g>
</svg>
