<svg width="243" height="173" viewBox="0 0 243 173" fill="none" xmlns="http://www.w3.org/2000/svg">
<path d="M42 4L300.981 73.5046L274.323 172.995L42 4Z" fill="#FFA3A3"/>
<circle cx="28.0724" cy="2.44949" r="2" transform="rotate(15 28.0724 2.44949)" fill="#222222"/>
<circle cx="22.3786" cy="23.6999" r="2" transform="rotate(15 22.3786 23.6999)" fill="#222222"/>
<circle cx="16.6842" cy="44.9502" r="2" transform="rotate(15 16.6842 44.9502)" fill="#222222"/>
<circle cx="10.9904" cy="66.2006" r="2" transform="rotate(15 10.9904 66.2006)" fill="#222222"/>
<circle cx="5.29654" cy="87.451" r="2" transform="rotate(15 5.29654 87.451)" fill="#222222"/>
<circle cx="34.8844" cy="15.6629" r="2" transform="rotate(15 34.8844 15.6629)" fill="#222222"/>
<circle cx="29.1906" cy="36.9132" r="2" transform="rotate(15 29.1906 36.9132)" fill="#222222"/>
<circle cx="23.4967" cy="58.1636" r="2" transform="rotate(15 23.4967 58.1636)" fill="#222222"/>
<circle cx="17.8024" cy="79.414" r="2" transform="rotate(15 17.8024 79.414)" fill="#222222"/>
<circle cx="12.1085" cy="100.664" r="2" transform="rotate(15 12.1085 100.664)" fill="#222222"/>
<circle cx="54.2033" cy="20.8393" r="2" transform="rotate(15 54.2033 20.8393)" fill="#222222"/>
<circle cx="48.5089" cy="42.0896" r="2" transform="rotate(15 48.5089 42.0896)" fill="#222222"/>
<circle cx="42.8151" cy="63.34" r="2" transform="rotate(15 42.8151 63.34)" fill="#222222"/>
<circle cx="37.1212" cy="84.5904" r="2" transform="rotate(15 37.1212 84.5904)" fill="#222222"/>
<circle cx="31.4269" cy="105.841" r="2" transform="rotate(15 31.4269 105.841)" fill="#222222"/>
<circle cx="73.5216" cy="26.0156" r="2" transform="rotate(15 73.5216 26.0156)" fill="#222222"/>
<circle cx="67.8278" cy="47.266" r="2" transform="rotate(15 67.8278 47.266)" fill="#222222"/>
<circle cx="62.1335" cy="68.5164" r="2" transform="rotate(15 62.1335 68.5164)" fill="#222222"/>
<circle cx="56.4396" cy="89.7668" r="2" transform="rotate(15 56.4396 89.7668)" fill="#222222"/>
<circle cx="50.7458" cy="111.017" r="2" transform="rotate(15 50.7458 111.017)" fill="#222222"/>
<circle cx="92.84" cy="31.192" r="2" transform="rotate(15 92.84 31.192)" fill="#222222"/>
<circle cx="87.1461" cy="52.4424" r="2" transform="rotate(15 87.1461 52.4424)" fill="#222222"/>
<circle cx="81.4523" cy="73.6927" r="2" transform="rotate(15 81.4523 73.6927)" fill="#222222"/>
<circle cx="75.758" cy="94.9431" r="2" transform="rotate(15 75.758 94.9431)" fill="#222222"/>
<circle cx="70.0641" cy="116.194" r="2" transform="rotate(15 70.0641 116.194)" fill="#222222"/>
<circle cx="112.159" cy="36.3684" r="2" transform="rotate(15 112.159 36.3684)" fill="#222222"/>
<circle cx="106.465" cy="57.6187" r="2" transform="rotate(15 106.465 57.6187)" fill="#222222"/>
<circle cx="100.771" cy="78.8691" r="2" transform="rotate(15 100.771 78.8691)" fill="#222222"/>
<circle cx="95.0768" cy="100.119" r="2" transform="rotate(15 95.0768 100.119)" fill="#222222"/>
<circle cx="89.3825" cy="121.37" r="2" transform="rotate(15 89.3825 121.37)" fill="#222222"/>
<circle cx="131.477" cy="41.5448" r="2" transform="rotate(15 131.477 41.5448)" fill="#222222"/>
<circle cx="125.783" cy="62.7951" r="2" transform="rotate(15 125.783 62.7951)" fill="#222222"/>
<circle cx="120.089" cy="84.0455" r="2" transform="rotate(15 120.089 84.0455)" fill="#222222"/>
<circle cx="114.395" cy="105.296" r="2" transform="rotate(15 114.395 105.296)" fill="#222222"/>
<circle cx="108.701" cy="126.546" r="2" transform="rotate(15 108.701 126.546)" fill="#222222"/>
<circle cx="150.796" cy="46.7212" r="2" transform="rotate(15 150.796 46.7212)" fill="#222222"/>
<circle cx="145.102" cy="67.9715" r="2" transform="rotate(15 145.102 67.9715)" fill="#222222"/>
<circle cx="139.408" cy="89.2219" r="2" transform="rotate(15 139.408 89.2219)" fill="#222222"/>
<circle cx="133.714" cy="110.472" r="2" transform="rotate(15 133.714 110.472)" fill="#222222"/>
<circle cx="128.02" cy="131.723" r="2" transform="rotate(15 128.02 131.723)" fill="#222222"/>
<circle cx="170.114" cy="51.8975" r="2" transform="rotate(15 170.114 51.8975)" fill="#222222"/>
<circle cx="164.42" cy="73.1479" r="2" transform="rotate(15 164.42 73.1479)" fill="#222222"/>
<circle cx="158.726" cy="94.3983" r="2" transform="rotate(15 158.726 94.3983)" fill="#222222"/>
<circle cx="153.032" cy="115.649" r="2" transform="rotate(15 153.032 115.649)" fill="#222222"/>
<circle cx="147.338" cy="136.899" r="2" transform="rotate(15 147.338 136.899)" fill="#222222"/>
<circle cx="189.433" cy="57.0739" r="2" transform="rotate(15 189.433 57.0739)" fill="#222222"/>
<circle cx="183.739" cy="78.3243" r="2" transform="rotate(15 183.739 78.3243)" fill="#222222"/>
<circle cx="178.045" cy="99.5747" r="2" transform="rotate(15 178.045 99.5747)" fill="#222222"/>
<circle cx="172.351" cy="120.825" r="2" transform="rotate(15 172.351 120.825)" fill="#222222"/>
<circle cx="166.657" cy="142.075" r="2" transform="rotate(15 166.657 142.075)" fill="#222222"/>
<circle cx="208.751" cy="62.2503" r="2" transform="rotate(15 208.751 62.2503)" fill="#222222"/>
<circle cx="203.057" cy="83.5007" r="2" transform="rotate(15 203.057 83.5007)" fill="#222222"/>
<circle cx="197.363" cy="104.751" r="2" transform="rotate(15 197.363 104.751)" fill="#222222"/>
<circle cx="191.669" cy="126.001" r="2" transform="rotate(15 191.669 126.001)" fill="#222222"/>
<circle cx="185.975" cy="147.252" r="2" transform="rotate(15 185.975 147.252)" fill="#222222"/>
<circle cx="228.07" cy="67.4267" r="2" transform="rotate(15 228.07 67.4267)" fill="#222222"/>
<circle cx="222.376" cy="88.677" r="2" transform="rotate(15 222.376 88.677)" fill="#222222"/>
<circle cx="216.682" cy="109.927" r="2" transform="rotate(15 216.682 109.927)" fill="#222222"/>
<circle cx="210.988" cy="131.178" r="2" transform="rotate(15 210.988 131.178)" fill="#222222"/>
<circle cx="205.294" cy="152.428" r="2" transform="rotate(15 205.294 152.428)" fill="#222222"/>
<circle cx="241.694" cy="93.8534" r="2" transform="rotate(15 241.694 93.8534)" fill="#222222"/>
<circle cx="236" cy="115.104" r="2" transform="rotate(15 236 115.104)" fill="#222222"/>
<circle cx="230.306" cy="136.354" r="2" transform="rotate(15 230.306 136.354)" fill="#222222"/>
<circle cx="224.612" cy="157.605" r="2" transform="rotate(15 224.612 157.605)" fill="#222222"/>
<circle cx="243.931" cy="162.781" r="2" transform="rotate(15 243.931 162.781)" fill="#222222"/>
<circle cx="47.3908" cy="7.62588" r="2" transform="rotate(15 47.3908 7.62588)" fill="#222222"/>
<circle cx="41.6969" cy="28.8762" r="2" transform="rotate(15 41.6969 28.8762)" fill="#222222"/>
<circle cx="36.0031" cy="50.1266" r="2" transform="rotate(15 36.0031 50.1266)" fill="#222222"/>
<circle cx="30.3087" cy="71.377" r="2" transform="rotate(15 30.3087 71.377)" fill="#222222"/>
<circle cx="24.6149" cy="92.6273" r="2" transform="rotate(15 24.6149 92.6273)" fill="#222222"/>
<circle cx="66.7096" cy="12.8022" r="2" transform="rotate(15 66.7096 12.8022)" fill="#222222"/>
<circle cx="61.0153" cy="34.0526" r="2" transform="rotate(15 61.0153 34.0526)" fill="#222222"/>
<circle cx="55.3214" cy="55.303" r="2" transform="rotate(15 55.3214 55.303)" fill="#222222"/>
<circle cx="49.6276" cy="76.5533" r="2" transform="rotate(15 49.6276 76.5533)" fill="#222222"/>
<circle cx="43.9333" cy="97.8037" r="2" transform="rotate(15 43.9333 97.8037)" fill="#222222"/>
<circle cx="86.028" cy="17.9786" r="2" transform="rotate(15 86.028 17.9786)" fill="#222222"/>
<circle cx="80.3341" cy="39.229" r="2" transform="rotate(15 80.3341 39.229)" fill="#222222"/>
<circle cx="74.6398" cy="60.4794" r="2" transform="rotate(15 74.6398 60.4794)" fill="#222222"/>
<circle cx="68.946" cy="81.7297" r="2" transform="rotate(15 68.946 81.7297)" fill="#222222"/>
<circle cx="63.2521" cy="102.98" r="2" transform="rotate(15 63.2521 102.98)" fill="#222222"/>
<circle cx="105.346" cy="23.155" r="2" transform="rotate(15 105.346 23.155)" fill="#222222"/>
<circle cx="99.6525" cy="44.4054" r="2" transform="rotate(15 99.6525 44.4054)" fill="#222222"/>
<circle cx="93.9586" cy="65.6558" r="2" transform="rotate(15 93.9586 65.6558)" fill="#222222"/>
<circle cx="88.2643" cy="86.9061" r="2" transform="rotate(15 88.2643 86.9061)" fill="#222222"/>
<circle cx="82.5705" cy="108.156" r="2" transform="rotate(15 82.5705 108.156)" fill="#222222"/>
<circle cx="124.665" cy="28.3314" r="2" transform="rotate(15 124.665 28.3314)" fill="#222222"/>
<circle cx="118.971" cy="49.5818" r="2" transform="rotate(15 118.971 49.5818)" fill="#222222"/>
<circle cx="113.277" cy="70.8321" r="2" transform="rotate(15 113.277 70.8321)" fill="#222222"/>
<circle cx="107.583" cy="92.0825" r="2" transform="rotate(15 107.583 92.0825)" fill="#222222"/>
<circle cx="101.889" cy="113.333" r="2" transform="rotate(15 101.889 113.333)" fill="#222222"/>
<circle cx="143.984" cy="33.5078" r="2" transform="rotate(15 143.984 33.5078)" fill="#222222"/>
<circle cx="138.29" cy="54.7581" r="2" transform="rotate(15 138.29 54.7581)" fill="#222222"/>
<circle cx="132.595" cy="76.0085" r="2" transform="rotate(15 132.595 76.0085)" fill="#222222"/>
<circle cx="126.902" cy="97.2589" r="2" transform="rotate(15 126.902 97.2589)" fill="#222222"/>
<circle cx="121.208" cy="118.509" r="2" transform="rotate(15 121.208 118.509)" fill="#222222"/>
<circle cx="163.302" cy="38.6842" r="2" transform="rotate(15 163.302 38.6842)" fill="#222222"/>
<circle cx="157.608" cy="59.9345" r="2" transform="rotate(15 157.608 59.9345)" fill="#222222"/>
<circle cx="151.914" cy="81.1849" r="2" transform="rotate(15 151.914 81.1849)" fill="#222222"/>
<circle cx="146.22" cy="102.435" r="2" transform="rotate(15 146.22 102.435)" fill="#222222"/>
<circle cx="140.526" cy="123.686" r="2" transform="rotate(15 140.526 123.686)" fill="#222222"/>
<circle cx="182.621" cy="43.8605" r="2" transform="rotate(15 182.621 43.8605)" fill="#222222"/>
<circle cx="176.926" cy="65.1109" r="2" transform="rotate(15 176.926 65.1109)" fill="#222222"/>
<circle cx="171.233" cy="86.3613" r="2" transform="rotate(15 171.233 86.3613)" fill="#222222"/>
<circle cx="165.539" cy="107.612" r="2" transform="rotate(15 165.539 107.612)" fill="#222222"/>
<circle cx="159.844" cy="128.862" r="2" transform="rotate(15 159.844 128.862)" fill="#222222"/>
<circle cx="201.939" cy="49.0369" r="2" transform="rotate(15 201.939 49.0369)" fill="#222222"/>
<circle cx="196.245" cy="70.2873" r="2" transform="rotate(15 196.245 70.2873)" fill="#222222"/>
<circle cx="190.551" cy="91.5376" r="2" transform="rotate(15 190.551 91.5376)" fill="#222222"/>
<circle cx="184.857" cy="112.788" r="2" transform="rotate(15 184.857 112.788)" fill="#222222"/>
<circle cx="179.163" cy="134.038" r="2" transform="rotate(15 179.163 134.038)" fill="#222222"/>
<circle cx="221.257" cy="54.2133" r="2" transform="rotate(15 221.257 54.2133)" fill="#222222"/>
<circle cx="215.564" cy="75.4637" r="2" transform="rotate(15 215.564 75.4637)" fill="#222222"/>
<circle cx="209.87" cy="96.714" r="2" transform="rotate(15 209.87 96.714)" fill="#222222"/>
<circle cx="204.175" cy="117.964" r="2" transform="rotate(15 204.175 117.964)" fill="#222222"/>
<circle cx="198.482" cy="139.215" r="2" transform="rotate(15 198.482 139.215)" fill="#222222"/>
<circle cx="240.576" cy="59.3897" r="2" transform="rotate(15 240.576 59.3897)" fill="#222222"/>
<circle cx="234.882" cy="80.64" r="2" transform="rotate(15 234.882 80.64)" fill="#222222"/>
<circle cx="229.188" cy="101.89" r="2" transform="rotate(15 229.188 101.89)" fill="#222222"/>
<circle cx="223.494" cy="123.141" r="2" transform="rotate(15 223.494 123.141)" fill="#222222"/>
<circle cx="217.8" cy="144.391" r="2" transform="rotate(15 217.8 144.391)" fill="#222222"/>
<circle cx="242.813" cy="128.317" r="2" transform="rotate(15 242.813 128.317)" fill="#222222"/>
<circle cx="237.118" cy="149.568" r="2" transform="rotate(15 237.118 149.568)" fill="#222222"/>
</svg>
